<?xml version="1.0" encoding="UTF-8"?>
<svg xmlns="http://www.w3.org/2000/svg" xmlns:xlink="http://www.w3.org/1999/xlink" width="32px" height="32px" viewBox="0 0 32 32" version="1.1">
<g id="surface1">
<rect x="0" y="0" width="32" height="32" style="fill:rgb(6.666667%,6.666667%,6.666667%);fill-opacity:1;stroke:none;"/>
<path style=" stroke:none;fill-rule:nonzero;fill:rgb(92.941177%,53.725493%,11.372549%);fill-opacity:1;" d="M 16.890625 4.035156 C 16.945312 4.039062 16.988281 4.046875 17.035156 4.078125 C 17.0625 4.097656 17.089844 4.117188 17.117188 4.136719 C 17.15625 4.164062 17.15625 4.164062 17.207031 4.179688 L 17.207031 4.214844 L 17.238281 4.21875 C 17.289062 4.234375 17.328125 4.253906 17.367188 4.285156 L 17.367188 4.320312 L 17.40625 4.332031 C 17.589844 4.414062 17.742188 4.574219 17.882812 4.710938 L 17.917969 4.742188 C 18.082031 4.902344 18.230469 5.0625 18.363281 5.246094 L 18.40625 5.300781 C 18.796875 5.851562 19.042969 6.472656 19.117188 7.144531 C 19.195312 8.027344 19.003906 8.84375 18.640625 9.644531 C 18.5 9.949219 18.347656 10.25 18.1875 10.546875 C 17.9375 11.007812 17.765625 11.5 17.773438 12.03125 C 17.78125 12.132812 17.796875 12.222656 17.832031 12.320312 L 17.847656 12.375 C 17.878906 12.488281 17.910156 12.578125 17.988281 12.664062 L 18.007812 12.691406 L 18.007812 12.746094 L 18.039062 12.761719 C 18.085938 12.785156 18.109375 12.8125 18.144531 12.851562 L 18.175781 12.886719 C 18.203125 12.925781 18.203125 12.925781 18.222656 12.964844 L 18.238281 12.996094 C 18.285156 13.019531 18.285156 13.019531 18.328125 13.03125 L 18.328125 13.066406 L 18.359375 13.082031 C 18.398438 13.101562 18.433594 13.125 18.46875 13.152344 L 18.503906 13.179688 C 18.519531 13.191406 18.53125 13.199219 18.542969 13.210938 C 18.570312 13.230469 18.59375 13.25 18.621094 13.269531 L 18.65625 13.292969 C 18.683594 13.316406 18.683594 13.316406 18.71875 13.332031 L 18.710938 13.289062 C 18.695312 13.179688 18.695312 13.070312 18.691406 12.964844 L 18.691406 12.925781 C 18.667969 12.207031 18.734375 11.460938 19.070312 10.8125 C 19.296875 10.402344 19.566406 10.007812 19.945312 9.722656 L 19.980469 9.699219 C 20.15625 9.566406 20.332031 9.457031 20.535156 9.367188 L 20.566406 9.355469 C 21.015625 9.160156 21.488281 9.113281 21.972656 9.121094 L 21.972656 9.15625 L 21.917969 9.183594 C 21.535156 9.371094 21.1875 9.578125 20.941406 9.9375 C 20.699219 10.320312 20.550781 10.730469 20.53125 11.183594 C 20.515625 11.75 20.621094 12.269531 20.835938 12.796875 C 20.851562 12.835938 20.867188 12.871094 20.882812 12.910156 C 20.910156 12.988281 20.941406 13.0625 20.976562 13.140625 C 20.992188 13.1875 21.003906 13.230469 21.011719 13.28125 L 21.050781 13.28125 L 21.066406 13.328125 C 21.109375 13.457031 21.109375 13.457031 21.183594 13.570312 L 21.226562 13.601562 C 21.273438 13.601562 21.273438 13.601562 21.316406 13.582031 C 21.34375 13.535156 21.34375 13.535156 21.363281 13.480469 L 21.382812 13.421875 L 21.40625 13.367188 L 21.421875 13.328125 C 21.441406 13.28125 21.449219 13.238281 21.457031 13.1875 L 21.464844 13.132812 L 21.476562 13.078125 L 21.484375 13.019531 C 21.507812 12.875 21.527344 12.730469 21.546875 12.585938 L 21.582031 12.585938 C 21.585938 12.597656 21.589844 12.613281 21.59375 12.625 C 21.617188 12.710938 21.640625 12.796875 21.671875 12.882812 C 21.726562 13.03125 21.777344 13.1875 21.804688 13.34375 C 21.816406 13.394531 21.828125 13.441406 21.839844 13.488281 C 21.867188 13.601562 21.886719 13.714844 21.902344 13.832031 C 21.910156 13.882812 21.917969 13.9375 21.929688 13.988281 C 21.964844 14.144531 21.984375 14.300781 22.003906 14.460938 L 22.011719 14.523438 C 22.019531 14.625 22.027344 14.722656 22.027344 14.824219 C 22.027344 14.867188 22.03125 14.910156 22.035156 14.953125 C 22.046875 15.078125 22.046875 15.203125 22.046875 15.328125 L 22.046875 15.398438 C 22.046875 15.515625 22.042969 15.632812 22.027344 15.75 C 22.023438 15.785156 22.023438 15.824219 22.019531 15.859375 C 21.964844 16.628906 21.695312 17.4375 21.269531 18.082031 C 21.226562 18.140625 21.1875 18.199219 21.144531 18.261719 C 21.121094 18.292969 21.097656 18.324219 21.078125 18.355469 C 21.003906 18.457031 21.003906 18.457031 20.976562 18.488281 L 20.941406 18.488281 C 20.949219 18.40625 20.960938 18.328125 20.972656 18.246094 C 21.070312 17.671875 21.007812 17.085938 20.808594 16.535156 C 20.664062 16.15625 20.457031 15.804688 20.214844 15.484375 L 20.191406 15.453125 C 20.089844 15.320312 19.980469 15.191406 19.863281 15.070312 C 19.820312 15.023438 19.820312 15.023438 19.785156 14.976562 C 19.753906 14.9375 19.730469 14.914062 19.691406 14.886719 L 19.644531 14.84375 L 19.644531 14.808594 L 19.613281 14.792969 C 19.574219 14.773438 19.546875 14.753906 19.515625 14.722656 L 19.484375 14.695312 L 19.421875 14.632812 C 19.394531 14.609375 19.367188 14.585938 19.34375 14.558594 C 19.351562 14.613281 19.371094 14.65625 19.394531 14.703125 L 19.417969 14.742188 L 19.441406 14.785156 C 19.457031 14.816406 19.472656 14.847656 19.488281 14.878906 L 19.515625 14.925781 C 19.722656 15.320312 19.90625 15.722656 19.910156 16.179688 C 19.898438 16.363281 19.863281 16.539062 19.769531 16.699219 L 19.734375 16.746094 L 19.703125 16.792969 C 19.648438 16.851562 19.59375 16.878906 19.519531 16.90625 C 19.433594 16.925781 19.375 16.929688 19.289062 16.90625 C 19.191406 16.871094 19.113281 16.820312 19.039062 16.746094 C 18.84375 16.523438 18.71875 16.246094 18.65625 15.957031 C 18.632812 15.8125 18.625 15.675781 18.625 15.53125 L 18.625 15.457031 C 18.625 15.355469 18.625 15.253906 18.625 15.148438 C 18.625 14.882812 18.621094 14.621094 18.558594 14.359375 C 18.542969 14.292969 18.542969 14.292969 18.542969 14.222656 L 18.507812 14.203125 C 18.496094 14.167969 18.484375 14.132812 18.472656 14.09375 C 18.375 13.828125 18.203125 13.605469 18.027344 13.386719 L 18.035156 13.4375 C 18.089844 13.816406 18.085938 14.230469 17.957031 14.59375 C 17.917969 14.671875 17.882812 14.742188 17.832031 14.808594 C 17.792969 14.832031 17.792969 14.832031 17.761719 14.84375 C 17.738281 14.769531 17.722656 14.691406 17.707031 14.613281 C 17.695312 14.539062 17.667969 14.476562 17.636719 14.40625 C 17.617188 14.363281 17.605469 14.320312 17.59375 14.273438 C 17.570312 14.203125 17.542969 14.144531 17.5 14.082031 C 17.472656 14.035156 17.449219 13.988281 17.421875 13.941406 C 17.394531 13.882812 17.363281 13.824219 17.328125 13.769531 L 17.308594 13.730469 C 17.273438 13.671875 17.238281 13.609375 17.203125 13.546875 C 16.929688 13.078125 16.746094 12.539062 16.742188 11.988281 C 16.738281 11.273438 16.898438 10.601562 17.207031 9.957031 L 17.230469 9.910156 C 17.421875 9.507812 17.652344 9.140625 17.9375 8.800781 C 17.863281 8.800781 17.785156 8.859375 17.71875 8.890625 L 17.664062 8.921875 C 17.363281 9.082031 17.074219 9.253906 16.800781 9.457031 L 16.765625 9.484375 C 16.632812 9.582031 16.507812 9.691406 16.386719 9.804688 C 16.347656 9.839844 16.304688 9.875 16.265625 9.910156 C 15.773438 10.339844 15.453125 10.945312 15.242188 11.554688 C 15.167969 11.777344 15.09375 12.007812 15.09375 12.25 L 15.058594 12.25 C 15.019531 12.160156 14.976562 12.070312 14.9375 11.980469 C 14.914062 11.925781 14.890625 11.875 14.867188 11.820312 L 14.820312 11.710938 L 14.796875 11.660156 C 14.757812 11.570312 14.726562 11.492188 14.71875 11.394531 L 14.683594 11.394531 C 14.679688 11.445312 14.671875 11.496094 14.667969 11.546875 L 14.664062 11.589844 C 14.632812 11.871094 14.625 12.152344 14.625 12.4375 L 14.625 12.496094 C 14.625 12.804688 14.640625 13.101562 14.683594 13.40625 L 14.695312 13.46875 C 14.765625 13.980469 14.867188 14.527344 15.109375 14.988281 L 15.148438 15.058594 L 15.074219 15.039062 L 15.074219 15.003906 L 15.042969 14.992188 C 15 14.964844 14.972656 14.941406 14.9375 14.902344 C 14.878906 14.84375 14.820312 14.789062 14.757812 14.734375 C 14.730469 14.710938 14.707031 14.6875 14.679688 14.664062 C 14.441406 14.445312 14.171875 14.257812 13.855469 14.179688 C 13.78125 14.164062 13.707031 14.148438 13.636719 14.132812 L 13.652344 14.171875 C 13.894531 14.773438 14.109375 15.386719 14.03125 16.046875 C 13.992188 16.296875 13.945312 16.558594 13.800781 16.769531 C 13.742188 16.84375 13.667969 16.898438 13.582031 16.941406 C 13.488281 16.964844 13.398438 16.972656 13.304688 16.949219 C 13.203125 16.914062 13.121094 16.875 13.046875 16.800781 C 12.765625 16.480469 12.628906 16.011719 12.546875 15.601562 C 12.523438 15.480469 12.507812 15.359375 12.496094 15.234375 L 12.492188 15.171875 C 12.449219 14.660156 12.441406 14.050781 12.621094 13.5625 L 12.585938 13.5625 L 12.574219 13.59375 C 12.542969 13.652344 12.492188 13.699219 12.445312 13.75 C 12 14.222656 11.667969 14.820312 11.449219 15.429688 L 11.433594 15.472656 C 11.246094 16 11.136719 16.535156 11.058594 17.085938 L 11.050781 17.140625 C 10.988281 17.578125 11.015625 18.03125 11.058594 18.472656 C 11.003906 18.453125 11.003906 18.453125 10.96875 18.414062 C 10.46875 17.761719 10.175781 17.027344 10.03125 16.222656 L 10.019531 16.164062 C 9.957031 15.800781 9.949219 15.433594 9.949219 15.0625 C 9.949219 15.003906 9.949219 14.941406 9.949219 14.878906 C 9.949219 14.585938 9.960938 14.296875 9.988281 14.003906 C 9.992188 13.957031 9.996094 13.914062 10 13.867188 C 10.0625 13.117188 10.257812 12.371094 10.492188 11.65625 L 10.515625 11.59375 C 10.554688 11.476562 10.597656 11.363281 10.644531 11.25 C 10.664062 11.203125 10.683594 11.15625 10.703125 11.113281 C 10.769531 10.9375 10.84375 10.765625 10.929688 10.601562 C 10.953125 10.554688 10.976562 10.507812 11 10.460938 C 11.230469 10.015625 11.5 9.605469 11.804688 9.207031 L 11.828125 9.179688 C 11.945312 9.023438 12.070312 8.878906 12.207031 8.738281 C 12.238281 8.703125 12.265625 8.671875 12.292969 8.636719 C 12.421875 8.492188 12.5625 8.355469 12.710938 8.230469 L 12.757812 8.191406 C 12.882812 8.085938 13.007812 7.988281 13.136719 7.894531 L 13.167969 7.871094 C 13.527344 7.609375 13.527344 7.609375 13.636719 7.574219 C 13.609375 7.652344 13.578125 7.726562 13.539062 7.800781 C 13.40625 8.058594 13.304688 8.332031 13.210938 8.605469 C 13.191406 8.660156 13.167969 8.714844 13.144531 8.769531 C 13.113281 8.84375 13.089844 8.914062 13.074219 8.992188 C 13.066406 9.039062 13.046875 9.082031 13.03125 9.128906 C 13.003906 9.203125 12.984375 9.273438 12.972656 9.351562 C 12.953125 9.4375 12.925781 9.523438 12.902344 9.605469 C 12.882812 9.679688 12.867188 9.75 12.859375 9.828125 C 12.847656 9.917969 12.828125 10.003906 12.808594 10.09375 C 12.710938 10.59375 12.671875 11.085938 12.671875 11.59375 C 12.667969 11.625 12.667969 11.625 12.667969 11.652344 C 12.667969 12.007812 12.695312 12.355469 12.757812 12.707031 L 12.765625 12.746094 C 12.890625 13.449219 12.890625 13.449219 13.207031 14.078125 C 13.246094 14.101562 13.246094 14.101562 13.28125 14.117188 L 13.269531 14.078125 C 13.261719 14.027344 13.261719 13.984375 13.261719 13.933594 L 13.257812 13.878906 L 13.261719 13.816406 L 13.261719 13.753906 C 13.265625 12.789062 13.328125 11.820312 13.636719 10.898438 L 13.652344 10.851562 C 13.824219 10.332031 14.078125 9.851562 14.417969 9.421875 L 14.457031 9.371094 C 14.542969 9.261719 14.636719 9.160156 14.730469 9.058594 C 14.753906 9.03125 14.78125 9.003906 14.804688 8.976562 C 14.910156 8.859375 15.019531 8.753906 15.136719 8.648438 C 15.164062 8.621094 15.195312 8.59375 15.222656 8.566406 C 15.324219 8.472656 15.429688 8.378906 15.539062 8.289062 C 15.597656 8.242188 15.65625 8.191406 15.714844 8.140625 C 15.804688 8.0625 15.898438 7.988281 15.992188 7.910156 C 16.046875 7.867188 16.097656 7.820312 16.148438 7.773438 L 16.179688 7.75 L 16.214844 7.75 L 16.214844 7.714844 C 16.246094 7.6875 16.246094 7.6875 16.289062 7.652344 C 16.378906 7.585938 16.460938 7.511719 16.539062 7.4375 C 16.582031 7.402344 16.621094 7.367188 16.660156 7.332031 C 16.800781 7.210938 16.917969 7.078125 17.03125 6.933594 L 17.074219 6.882812 C 17.300781 6.601562 17.464844 6.261719 17.523438 5.910156 C 17.566406 5.5625 17.554688 5.214844 17.421875 4.890625 C 17.3125 4.644531 17.179688 4.421875 17.011719 4.214844 L 16.9375 4.117188 L 16.910156 4.082031 L 16.890625 4.054688 Z M 16.890625 4.035156 "/>
<path style=" stroke:none;fill-rule:nonzero;fill:rgb(64.705884%,9.803922%,12.156863%);fill-opacity:1;" d="M 17.921875 8.765625 L 17.957031 8.800781 L 17.925781 8.832031 C 17.695312 9.097656 17.511719 9.398438 17.351562 9.707031 L 17.328125 9.75 C 17.195312 10.003906 17.089844 10.257812 16.996094 10.523438 L 16.980469 10.5625 C 16.78125 11.136719 16.683594 11.8125 16.792969 12.417969 C 16.839844 12.664062 16.914062 12.90625 17.011719 13.136719 L 17.039062 13.199219 C 17.140625 13.421875 17.265625 13.632812 17.390625 13.84375 C 17.441406 13.929688 17.488281 14.011719 17.53125 14.101562 C 17.542969 14.121094 17.550781 14.144531 17.5625 14.164062 C 17.613281 14.257812 17.644531 14.351562 17.671875 14.453125 C 17.6875 14.503906 17.6875 14.503906 17.707031 14.550781 C 17.730469 14.609375 17.738281 14.664062 17.746094 14.726562 L 17.753906 14.792969 L 17.761719 14.84375 C 17.867188 14.742188 17.925781 14.628906 17.972656 14.492188 C 18.074219 14.128906 18.0625 13.738281 18.007812 13.367188 C 18.234375 13.585938 18.421875 13.875 18.523438 14.167969 L 18.539062 14.207031 C 18.652344 14.550781 18.640625 14.902344 18.640625 15.257812 C 18.636719 15.667969 18.636719 15.667969 18.703125 16.070312 L 18.714844 16.113281 C 18.78125 16.339844 18.898438 16.585938 19.066406 16.757812 C 19.144531 16.828125 19.226562 16.871094 19.332031 16.898438 C 19.425781 16.914062 19.503906 16.890625 19.589844 16.859375 C 19.65625 16.828125 19.695312 16.785156 19.738281 16.726562 C 19.839844 16.554688 19.878906 16.375 19.894531 16.179688 C 19.894531 15.925781 19.84375 15.679688 19.738281 15.449219 C 19.714844 15.390625 19.691406 15.328125 19.667969 15.269531 C 19.621094 15.148438 19.5625 15.039062 19.496094 14.929688 C 19.425781 14.804688 19.367188 14.675781 19.308594 14.542969 C 19.382812 14.574219 19.433594 14.625 19.492188 14.679688 C 19.503906 14.691406 19.511719 14.699219 19.523438 14.710938 C 19.570312 14.753906 19.613281 14.796875 19.65625 14.839844 C 19.695312 14.878906 19.695312 14.878906 19.738281 14.914062 C 19.792969 14.957031 19.832031 15.003906 19.875 15.054688 C 19.898438 15.078125 19.921875 15.105469 19.945312 15.128906 C 20.421875 15.636719 20.78125 16.277344 20.949219 16.957031 C 21.050781 17.394531 21.066406 17.847656 20.984375 18.289062 C 20.976562 18.324219 20.972656 18.359375 20.96875 18.394531 C 20.957031 18.484375 20.9375 18.550781 20.882812 18.617188 C 20.828125 18.679688 20.769531 18.734375 20.710938 18.792969 C 20.695312 18.808594 20.675781 18.824219 20.660156 18.839844 C 20.148438 19.332031 19.511719 19.667969 18.828125 19.839844 C 18.6875 19.871094 18.550781 19.898438 18.410156 19.921875 C 18.375 19.925781 18.339844 19.933594 18.308594 19.941406 C 18.238281 19.949219 18.167969 19.949219 18.097656 19.945312 L 18.105469 19.910156 C 18.203125 19.359375 18.285156 18.8125 18.328125 18.257812 L 18.296875 18.242188 C 18.046875 18.109375 17.8125 17.964844 17.582031 17.796875 L 17.492188 17.730469 C 17.328125 17.609375 17.167969 17.488281 17.011719 17.351562 L 16.964844 17.308594 C 16.84375 17.199219 16.726562 17.082031 16.609375 16.964844 L 16.558594 16.917969 C 16.480469 16.839844 16.402344 16.757812 16.332031 16.671875 C 16.285156 16.621094 16.242188 16.574219 16.195312 16.523438 C 16.039062 16.355469 16.039062 16.355469 15.980469 16.285156 L 15.980469 16.25 L 15.929688 16.25 L 15.917969 16.277344 C 15.886719 16.332031 15.847656 16.371094 15.804688 16.417969 L 15.753906 16.476562 L 15.722656 16.503906 C 15.683594 16.546875 15.644531 16.59375 15.605469 16.636719 C 15.078125 17.207031 15.078125 17.207031 14.859375 17.394531 C 14.820312 17.429688 14.78125 17.464844 14.742188 17.5 C 14.421875 17.789062 14.058594 18.070312 13.671875 18.257812 C 13.675781 18.347656 13.679688 18.4375 13.6875 18.527344 C 13.6875 18.5625 13.691406 18.59375 13.691406 18.628906 C 13.710938 18.953125 13.757812 19.269531 13.8125 19.589844 L 13.824219 19.644531 C 13.835938 19.710938 13.847656 19.777344 13.859375 19.839844 C 13.867188 19.894531 13.867188 19.894531 13.867188 19.945312 C 13.183594 19.894531 12.511719 19.660156 11.9375 19.285156 C 11.90625 19.265625 11.871094 19.242188 11.839844 19.21875 L 11.789062 19.179688 C 11.644531 19.074219 11.511719 18.960938 11.378906 18.84375 L 11.328125 18.800781 C 11.09375 18.59375 11.09375 18.59375 11.039062 18.472656 C 11.03125 18.425781 11.03125 18.425781 11.027344 18.378906 L 11.019531 18.261719 L 11.015625 18.195312 C 10.964844 17.382812 11.074219 16.585938 11.308594 15.804688 L 11.324219 15.742188 C 11.417969 15.4375 11.539062 15.148438 11.679688 14.863281 L 11.707031 14.808594 C 11.890625 14.4375 12.105469 14.113281 12.386719 13.804688 C 12.445312 13.738281 12.5 13.671875 12.554688 13.601562 L 12.585938 13.5625 L 12.621094 13.5625 L 12.613281 13.597656 C 12.4375 14.363281 12.433594 15.222656 12.65625 15.980469 L 12.671875 16.035156 C 12.746094 16.273438 12.847656 16.507812 12.996094 16.710938 L 13.019531 16.746094 C 13.082031 16.828125 13.148438 16.867188 13.238281 16.90625 C 13.324219 16.941406 13.402344 16.953125 13.492188 16.941406 C 13.550781 16.929688 13.601562 16.914062 13.652344 16.890625 C 13.671875 16.871094 13.6875 16.855469 13.707031 16.835938 L 13.742188 16.835938 L 13.757812 16.804688 C 13.777344 16.769531 13.796875 16.738281 13.820312 16.707031 C 13.972656 16.460938 14.019531 16.128906 14.03125 15.84375 C 14.042969 15.316406 13.890625 14.847656 13.707031 14.363281 L 13.691406 14.324219 C 13.683594 14.296875 13.675781 14.273438 13.664062 14.25 C 13.636719 14.171875 13.636719 14.171875 13.636719 14.132812 C 13.859375 14.136719 14.0625 14.210938 14.253906 14.324219 C 14.441406 14.4375 14.605469 14.582031 14.765625 14.730469 C 14.8125 14.773438 14.859375 14.816406 14.90625 14.859375 C 14.957031 14.90625 15.003906 14.953125 15.054688 15 L 15.09375 15.039062 L 15.128906 15.039062 C 15.117188 15.023438 15.109375 15.003906 15.097656 14.988281 C 15.054688 14.914062 15.027344 14.84375 14.996094 14.765625 L 14.980469 14.722656 C 14.933594 14.597656 14.890625 14.46875 14.855469 14.335938 C 14.847656 14.308594 14.839844 14.277344 14.832031 14.25 C 14.757812 13.996094 14.714844 13.742188 14.679688 13.480469 L 14.671875 13.433594 C 14.628906 13.128906 14.609375 12.832031 14.609375 12.523438 C 14.609375 12.464844 14.609375 12.410156 14.609375 12.355469 C 14.609375 12.164062 14.613281 11.976562 14.628906 11.789062 L 14.632812 11.738281 C 14.644531 11.621094 14.660156 11.507812 14.683594 11.394531 L 14.71875 11.394531 L 14.734375 11.441406 C 14.792969 11.609375 14.863281 11.769531 14.9375 11.933594 C 14.960938 11.980469 14.984375 12.03125 15.007812 12.078125 L 15.035156 12.144531 C 15.058594 12.195312 15.058594 12.195312 15.058594 12.25 L 15.09375 12.25 L 15.082031 12.214844 C 15.074219 12.148438 15.082031 12.089844 15.09375 12.023438 L 15.101562 11.984375 C 15.128906 11.84375 15.171875 11.710938 15.214844 11.578125 C 15.230469 11.535156 15.242188 11.496094 15.257812 11.457031 C 15.316406 11.273438 15.394531 11.101562 15.484375 10.933594 L 15.507812 10.890625 C 15.734375 10.457031 16.066406 10.035156 16.445312 9.722656 L 16.492188 9.683594 C 16.828125 9.386719 17.207031 9.160156 17.597656 8.945312 C 17.664062 8.910156 17.730469 8.871094 17.796875 8.832031 L 17.835938 8.8125 Z M 17.921875 8.765625 "/>
<path style=" stroke:none;fill-rule:nonzero;fill:rgb(99.607843%,99.607843%,99.607843%);fill-opacity:1;" d="M 19.8125 21.207031 C 20.097656 21.347656 20.351562 21.554688 20.53125 21.820312 C 20.679688 22.046875 20.757812 22.308594 20.78125 22.578125 C 20.792969 22.871094 20.746094 23.148438 20.609375 23.40625 C 20.546875 23.519531 20.476562 23.617188 20.390625 23.714844 L 20.359375 23.753906 C 20.179688 23.972656 19.929688 24.117188 19.667969 24.21875 C 19.359375 24.324219 19.046875 24.320312 18.726562 24.265625 C 18.550781 24.230469 18.398438 24.164062 18.238281 24.070312 L 18.238281 24.035156 L 18.199219 24.023438 C 18.144531 23.996094 18.109375 23.964844 18.0625 23.921875 L 18.015625 23.878906 L 17.972656 23.839844 L 17.925781 23.796875 C 17.765625 23.625 17.628906 23.441406 17.5625 23.214844 C 17.546875 23.164062 17.546875 23.164062 17.527344 23.117188 C 17.441406 22.898438 17.457031 22.609375 17.484375 22.378906 C 17.503906 22.285156 17.539062 22.191406 17.570312 22.101562 L 17.585938 22.058594 C 17.617188 21.976562 17.652344 21.910156 17.703125 21.839844 C 17.726562 21.8125 17.726562 21.8125 17.75 21.769531 C 17.789062 21.707031 17.835938 21.660156 17.882812 21.609375 L 17.910156 21.578125 C 17.964844 21.519531 18.015625 21.46875 18.078125 21.421875 L 18.117188 21.421875 L 18.132812 21.367188 C 18.199219 21.320312 18.273438 21.28125 18.347656 21.246094 L 18.378906 21.226562 C 18.816406 20.996094 19.363281 21 19.8125 21.207031 M 21.226562 21.066406 C 21.269531 21.066406 21.3125 21.0625 21.359375 21.0625 L 21.398438 21.0625 C 21.425781 21.0625 21.453125 21.0625 21.480469 21.0625 C 21.523438 21.0625 21.566406 21.0625 21.609375 21.0625 C 21.636719 21.0625 21.664062 21.0625 21.691406 21.0625 L 21.730469 21.058594 C 21.789062 21.058594 21.828125 21.066406 21.882812 21.089844 C 21.933594 21.132812 21.976562 21.179688 22.019531 21.230469 L 22.074219 21.300781 L 22.105469 21.335938 C 22.140625 21.378906 22.179688 21.421875 22.21875 21.464844 C 22.296875 21.558594 22.375 21.648438 22.449219 21.746094 C 22.503906 21.8125 22.558594 21.882812 22.617188 21.949219 L 22.648438 21.988281 C 22.707031 22.058594 22.765625 22.128906 22.824219 22.195312 L 22.84375 22.222656 L 22.84375 22.257812 L 22.898438 22.277344 C 22.917969 22.300781 22.917969 22.300781 22.941406 22.332031 C 23 22.417969 23.070312 22.492188 23.136719 22.574219 C 23.203125 22.648438 23.269531 22.730469 23.332031 22.8125 C 23.359375 22.847656 23.359375 22.847656 23.414062 22.863281 L 23.394531 22.828125 C 23.394531 22.777344 23.390625 22.730469 23.390625 22.679688 L 23.390625 22.632812 C 23.390625 22.582031 23.390625 22.535156 23.390625 22.484375 L 23.386719 22.378906 C 23.386719 22.304688 23.386719 22.230469 23.386719 22.15625 C 23.382812 22.0625 23.382812 21.96875 23.382812 21.875 C 23.382812 21.804688 23.378906 21.730469 23.378906 21.660156 C 23.378906 21.625 23.378906 21.589844 23.378906 21.554688 C 23.378906 21.507812 23.378906 21.457031 23.378906 21.410156 L 23.375 21.367188 C 23.375 21.265625 23.382812 21.167969 23.394531 21.066406 C 23.503906 21.066406 23.613281 21.066406 23.722656 21.066406 C 23.757812 21.066406 23.796875 21.066406 23.832031 21.066406 C 23.886719 21.066406 23.9375 21.066406 23.992188 21.066406 L 24.160156 21.066406 L 24.179688 21.085938 C 24.179688 21.125 24.179688 21.164062 24.179688 21.207031 L 24.179688 21.246094 C 24.179688 21.289062 24.179688 21.332031 24.179688 21.375 L 24.179688 21.46875 C 24.179688 21.554688 24.179688 21.640625 24.179688 21.726562 C 24.179688 21.8125 24.179688 21.902344 24.179688 21.992188 C 24.179688 22.140625 24.179688 22.289062 24.179688 22.4375 C 24.179688 22.609375 24.179688 22.78125 24.179688 22.953125 C 24.179688 23.101562 24.179688 23.25 24.179688 23.398438 C 24.179688 23.484375 24.179688 23.574219 24.179688 23.660156 C 24.179688 23.746094 24.179688 23.828125 24.179688 23.910156 C 24.179688 23.941406 24.179688 23.972656 24.179688 24.003906 C 24.179688 24.042969 24.179688 24.085938 24.179688 24.125 L 24.179688 24.25 L 24.160156 24.265625 C 24.117188 24.269531 24.074219 24.269531 24.03125 24.269531 L 23.992188 24.269531 C 23.964844 24.269531 23.9375 24.269531 23.910156 24.269531 C 23.871094 24.269531 23.828125 24.269531 23.785156 24.269531 C 23.757812 24.269531 23.734375 24.269531 23.707031 24.269531 L 23.667969 24.269531 C 23.613281 24.269531 23.570312 24.265625 23.519531 24.25 C 23.488281 24.214844 23.488281 24.214844 23.453125 24.167969 L 23.410156 24.117188 L 23.386719 24.085938 C 23.335938 24.023438 23.285156 23.964844 23.234375 23.902344 C 23.15625 23.804688 23.074219 23.707031 22.992188 23.609375 C 22.925781 23.527344 22.859375 23.445312 22.792969 23.363281 C 22.722656 23.277344 22.652344 23.191406 22.582031 23.105469 C 22.550781 23.070312 22.519531 23.03125 22.488281 22.996094 L 22.460938 22.964844 C 22.445312 22.941406 22.425781 22.921875 22.40625 22.902344 C 22.386719 22.878906 22.367188 22.851562 22.347656 22.828125 L 22.347656 22.792969 L 22.3125 22.792969 C 22.265625 22.738281 22.265625 22.738281 22.222656 22.683594 L 22.222656 22.648438 L 22.1875 22.648438 C 22.15625 22.613281 22.128906 22.578125 22.097656 22.542969 L 22.0625 22.523438 L 22.0625 22.488281 L 22.027344 22.488281 L 22.027344 24.265625 L 21.226562 24.265625 C 21.222656 23.851562 21.222656 23.4375 21.21875 23.023438 C 21.21875 22.832031 21.214844 22.636719 21.214844 22.445312 C 21.214844 22.277344 21.214844 22.109375 21.210938 21.941406 C 21.210938 21.851562 21.210938 21.765625 21.210938 21.675781 C 21.210938 21.59375 21.210938 21.507812 21.207031 21.425781 C 21.207031 21.394531 21.207031 21.363281 21.207031 21.332031 C 21.207031 21.289062 21.207031 21.25 21.207031 21.207031 L 21.207031 21.085938 Z M 14.773438 21.101562 L 14.828125 21.117188 C 15.085938 21.195312 15.320312 21.347656 15.519531 21.527344 C 15.550781 21.566406 15.550781 21.566406 15.574219 21.601562 C 15.570312 21.636719 15.570312 21.636719 15.554688 21.671875 C 15.53125 21.699219 15.53125 21.699219 15.496094 21.726562 C 15.359375 21.839844 15.230469 21.960938 15.132812 22.109375 L 15.109375 22.132812 L 15.058594 22.132812 C 15.035156 22.105469 15.007812 22.074219 14.988281 22.042969 L 14.949219 22.027344 L 14.949219 21.992188 L 14.910156 21.976562 C 14.851562 21.949219 14.792969 21.921875 14.734375 21.890625 C 14.609375 21.832031 14.496094 21.804688 14.359375 21.804688 L 14.3125 21.804688 C 14.152344 21.808594 14.019531 21.855469 13.878906 21.933594 C 13.757812 22.011719 13.667969 22.101562 13.59375 22.230469 C 13.511719 22.394531 13.46875 22.550781 13.476562 22.738281 C 13.5 22.921875 13.5625 23.085938 13.671875 23.234375 C 13.773438 23.371094 13.910156 23.4375 14.0625 23.503906 C 14.21875 23.5625 14.402344 23.550781 14.566406 23.53125 C 14.703125 23.5 14.820312 23.441406 14.933594 23.359375 C 14.976562 23.320312 15.007812 23.285156 15.039062 23.234375 L 15.039062 23.199219 C 14.898438 23.183594 14.753906 23.175781 14.609375 23.171875 L 14.382812 23.164062 L 14.382812 22.507812 C 14.574219 22.496094 14.761719 22.488281 14.953125 22.488281 L 15.019531 22.488281 C 15.097656 22.488281 15.175781 22.488281 15.253906 22.488281 L 15.785156 22.488281 L 15.804688 24.25 C 15.722656 24.261719 15.664062 24.269531 15.585938 24.265625 L 15.460938 24.257812 L 15.394531 24.257812 C 15.339844 24.253906 15.289062 24.25 15.234375 24.25 C 15.210938 24.179688 15.191406 24.109375 15.183594 24.035156 L 15.132812 24.0625 C 14.839844 24.238281 14.5625 24.296875 14.222656 24.300781 C 13.914062 24.296875 13.648438 24.1875 13.386719 24.035156 L 13.386719 24 C 13.34375 23.980469 13.308594 23.960938 13.261719 23.945312 C 13.195312 23.886719 13.136719 23.816406 13.078125 23.75 C 13.046875 23.714844 13.046875 23.714844 13.003906 23.675781 C 12.890625 23.554688 12.820312 23.410156 12.765625 23.253906 L 12.75 23.210938 C 12.636719 22.886719 12.640625 22.5625 12.703125 22.222656 C 12.753906 22.003906 12.875 21.8125 13.011719 21.636719 C 13.023438 21.621094 13.035156 21.609375 13.042969 21.597656 C 13.195312 21.410156 13.421875 21.246094 13.644531 21.152344 C 14.003906 21.03125 14.402344 21 14.773438 21.101562 M 10.152344 21.066406 L 12.285156 21.066406 C 12.300781 21.582031 12.300781 21.582031 12.300781 21.8125 L 10.96875 21.8125 L 10.96875 22.277344 L 11.132812 22.273438 C 11.1875 22.273438 11.242188 22.273438 11.296875 22.273438 C 11.332031 22.273438 11.371094 22.273438 11.40625 22.273438 C 11.664062 22.273438 11.921875 22.28125 12.179688 22.292969 L 12.179688 23.003906 L 10.96875 23.003906 L 10.96875 23.519531 L 11.078125 23.519531 C 11.199219 23.519531 11.320312 23.519531 11.4375 23.519531 C 11.511719 23.519531 11.585938 23.519531 11.65625 23.519531 C 11.726562 23.519531 11.796875 23.519531 11.867188 23.519531 C 11.894531 23.519531 11.921875 23.519531 11.949219 23.519531 C 12.097656 23.519531 12.242188 23.519531 12.390625 23.539062 C 12.390625 23.640625 12.390625 23.738281 12.390625 23.839844 C 12.390625 23.875 12.390625 23.910156 12.390625 23.945312 C 12.394531 23.992188 12.394531 24.042969 12.394531 24.089844 L 12.394531 24.136719 C 12.394531 24.175781 12.390625 24.210938 12.390625 24.25 L 12.375 24.265625 C 12.34375 24.269531 12.316406 24.269531 12.289062 24.269531 L 12.105469 24.269531 C 12.042969 24.269531 11.984375 24.269531 11.925781 24.269531 C 11.863281 24.269531 11.804688 24.269531 11.742188 24.269531 C 11.625 24.269531 11.507812 24.269531 11.390625 24.269531 C 11.257812 24.269531 11.125 24.269531 10.992188 24.265625 C 10.71875 24.265625 10.441406 24.265625 10.167969 24.265625 C 10.148438 23.933594 10.148438 23.601562 10.148438 23.269531 C 10.148438 23.191406 10.148438 23.113281 10.148438 23.035156 C 10.148438 22.890625 10.148438 22.742188 10.148438 22.597656 C 10.148438 22.398438 10.148438 22.199219 10.148438 22 C 10.152344 21.691406 10.152344 21.378906 10.152344 21.066406 M 7.785156 21.066406 C 8.550781 21.066406 8.550781 21.066406 8.585938 21.085938 L 8.585938 23.519531 L 9.796875 23.519531 L 9.796875 24.265625 C 9.542969 24.265625 9.289062 24.265625 9.035156 24.269531 C 8.914062 24.269531 8.796875 24.269531 8.679688 24.269531 C 8.566406 24.269531 8.453125 24.269531 8.339844 24.269531 C 8.292969 24.269531 8.25 24.269531 8.207031 24.269531 C 8.148438 24.269531 8.085938 24.269531 8.027344 24.269531 L 7.878906 24.269531 C 7.839844 24.265625 7.839844 24.265625 7.785156 24.25 Z M 16.230469 21.066406 L 17.03125 21.066406 C 17.035156 21.390625 17.035156 21.71875 17.039062 22.042969 C 17.039062 22.195312 17.039062 22.347656 17.042969 22.496094 L 17.042969 22.894531 L 17.046875 23.101562 C 17.046875 23.296875 17.046875 23.492188 17.050781 23.6875 C 17.050781 23.773438 17.050781 23.859375 17.050781 23.945312 C 17.050781 23.972656 17.050781 23.996094 17.050781 24.023438 C 17.050781 24.0625 17.050781 24.097656 17.050781 24.136719 L 17.050781 24.25 L 17.03125 24.265625 C 17.007812 24.269531 16.980469 24.269531 16.957031 24.269531 L 16.804688 24.269531 C 16.75 24.269531 16.695312 24.269531 16.640625 24.269531 C 16.601562 24.269531 16.5625 24.269531 16.527344 24.265625 C 16.433594 24.265625 16.339844 24.265625 16.25 24.265625 C 16.222656 24.214844 16.230469 24.164062 16.230469 24.105469 L 16.230469 24.066406 C 16.230469 24.023438 16.230469 23.980469 16.230469 23.9375 L 16.230469 23.84375 C 16.230469 23.757812 16.230469 23.671875 16.230469 23.589844 C 16.230469 23.5 16.230469 23.410156 16.230469 23.324219 C 16.230469 23.15625 16.230469 22.988281 16.230469 22.820312 C 16.230469 22.628906 16.230469 22.4375 16.230469 22.246094 C 16.230469 21.851562 16.230469 21.460938 16.230469 21.066406 "/>
<path style=" stroke:none;fill-rule:nonzero;fill:rgb(92.941177%,48.235294%,10.980392%);fill-opacity:1;" d="M 21.972656 24.925781 L 22.023438 24.941406 C 22.164062 24.992188 22.265625 25.0625 22.363281 25.171875 C 22.457031 25.285156 22.535156 25.410156 22.570312 25.550781 C 22.597656 25.722656 22.589844 25.894531 22.53125 26.058594 C 22.460938 26.21875 22.359375 26.355469 22.214844 26.460938 C 22.09375 26.535156 21.960938 26.589844 21.820312 26.601562 C 21.632812 26.605469 21.472656 26.585938 21.300781 26.5 C 21.167969 26.425781 21.074219 26.335938 20.992188 26.207031 C 20.910156 26.0625 20.851562 25.917969 20.847656 25.75 C 20.851562 25.609375 20.863281 25.480469 20.933594 25.355469 C 20.964844 25.3125 20.996094 25.269531 21.03125 25.226562 L 21.070312 25.171875 C 21.195312 25.042969 21.34375 24.960938 21.511719 24.90625 C 21.664062 24.875 21.824219 24.871094 21.972656 24.925781 "/>
<path style=" stroke:none;fill-rule:nonzero;fill:rgb(7.843138%,7.450981%,9.803922%);fill-opacity:1;" d="M 19.511719 21.921875 L 19.574219 21.957031 L 19.574219 21.992188 L 19.613281 22.003906 C 19.695312 22.042969 19.746094 22.101562 19.804688 22.167969 C 19.898438 22.308594 19.957031 22.453125 19.96875 22.625 C 19.972656 22.785156 19.960938 22.949219 19.890625 23.101562 C 19.871094 23.132812 19.871094 23.132812 19.839844 23.183594 L 19.804688 23.183594 L 19.792969 23.222656 C 19.765625 23.28125 19.730469 23.316406 19.679688 23.359375 L 19.640625 23.394531 C 19.527344 23.472656 19.390625 23.539062 19.253906 23.554688 C 19.0625 23.570312 18.90625 23.539062 18.730469 23.464844 C 18.601562 23.402344 18.503906 23.304688 18.421875 23.191406 C 18.335938 23.0625 18.277344 22.921875 18.269531 22.765625 C 18.265625 22.621094 18.269531 22.480469 18.328125 22.347656 L 18.347656 22.308594 C 18.410156 22.175781 18.503906 22.0625 18.621094 21.976562 C 18.910156 21.792969 19.207031 21.773438 19.511719 21.921875 "/>
<path style=" stroke:none;fill-rule:nonzero;fill:rgb(92.941177%,48.235294%,10.980392%);fill-opacity:1;" d="M 19.253906 24.925781 C 20.101562 24.925781 20.101562 24.925781 20.316406 25.027344 C 20.460938 25.113281 20.5625 25.207031 20.648438 25.355469 C 20.730469 25.503906 20.757812 25.632812 20.753906 25.800781 C 20.75 25.9375 20.71875 26.042969 20.648438 26.160156 C 20.558594 26.300781 20.449219 26.410156 20.300781 26.488281 C 19.980469 26.632812 19.589844 26.578125 19.253906 26.578125 Z M 9.707031 24.925781 C 9.75 24.921875 9.792969 24.921875 9.835938 24.921875 L 9.878906 24.921875 C 9.90625 24.921875 9.933594 24.921875 9.960938 24.921875 C 10.003906 24.921875 10.046875 24.921875 10.089844 24.921875 C 10.3125 24.917969 10.53125 24.933594 10.738281 25.03125 C 10.871094 25.113281 10.984375 25.203125 11.066406 25.339844 C 11.152344 25.503906 11.175781 25.660156 11.171875 25.84375 C 11.164062 25.976562 11.117188 26.101562 11.046875 26.214844 C 10.957031 26.339844 10.84375 26.425781 10.703125 26.492188 C 10.535156 26.558594 10.371094 26.582031 10.1875 26.578125 L 10.144531 26.578125 C 10.101562 26.578125 10.054688 26.578125 10.007812 26.578125 C 9.976562 26.578125 9.945312 26.578125 9.914062 26.578125 C 9.839844 26.578125 9.765625 26.578125 9.6875 26.578125 C 9.6875 26.363281 9.6875 26.152344 9.6875 25.9375 C 9.6875 25.839844 9.6875 25.742188 9.6875 25.640625 C 9.6875 25.546875 9.6875 25.453125 9.6875 25.355469 C 9.6875 25.320312 9.6875 25.285156 9.6875 25.246094 C 9.6875 25.195312 9.6875 25.144531 9.6875 25.09375 L 9.6875 25.046875 C 9.6875 25.011719 9.6875 24.976562 9.6875 24.941406 Z M 15.109375 24.925781 C 15.167969 24.917969 15.226562 24.917969 15.285156 24.917969 L 15.335938 24.914062 L 15.429688 24.914062 L 15.464844 24.925781 C 15.507812 24.976562 15.53125 25.035156 15.554688 25.097656 L 15.574219 25.148438 L 15.597656 25.207031 C 15.613281 25.246094 15.628906 25.285156 15.644531 25.324219 L 15.671875 25.390625 C 15.886719 25.941406 15.886719 25.941406 16.144531 26.472656 C 16.160156 26.507812 16.160156 26.507812 16.160156 26.558594 L 15.734375 26.558594 L 15.625 26.292969 C 15.546875 26.289062 15.46875 26.289062 15.390625 26.285156 C 15.363281 26.285156 15.335938 26.28125 15.308594 26.28125 C 15.269531 26.28125 15.230469 26.277344 15.191406 26.277344 L 15.121094 26.273438 C 15.0625 26.277344 15.007812 26.277344 14.949219 26.292969 C 14.921875 26.339844 14.902344 26.378906 14.882812 26.429688 L 14.828125 26.558594 L 14.4375 26.558594 C 14.449219 26.476562 14.460938 26.425781 14.496094 26.347656 C 14.507812 26.328125 14.515625 26.304688 14.527344 26.285156 L 14.542969 26.246094 C 14.578125 26.160156 14.613281 26.078125 14.648438 25.992188 L 14.671875 25.9375 C 14.714844 25.835938 14.757812 25.734375 14.796875 25.628906 C 14.832031 25.542969 14.867188 25.457031 14.90625 25.375 C 14.953125 25.273438 14.996094 25.167969 15.039062 25.066406 L 15.058594 25.019531 L 15.078125 24.976562 C 15.09375 24.941406 15.09375 24.941406 15.109375 24.925781 M 18.097656 24.925781 C 18.15625 24.925781 18.214844 24.921875 18.273438 24.921875 L 18.417969 24.921875 C 18.453125 24.925781 18.453125 24.925781 18.488281 24.941406 C 18.507812 24.984375 18.523438 25.027344 18.539062 25.070312 C 18.546875 25.09375 18.558594 25.121094 18.566406 25.148438 L 18.582031 25.1875 C 18.601562 25.246094 18.628906 25.308594 18.652344 25.367188 L 18.664062 25.402344 C 18.6875 25.457031 18.710938 25.515625 18.738281 25.570312 C 18.773438 25.648438 18.804688 25.730469 18.835938 25.808594 C 18.894531 25.964844 18.957031 26.121094 19.023438 26.273438 L 19.042969 26.320312 C 19.058594 26.351562 19.070312 26.378906 19.085938 26.410156 L 19.101562 26.453125 C 19.109375 26.464844 19.113281 26.476562 19.121094 26.492188 C 19.121094 26.5 19.125 26.511719 19.128906 26.523438 L 19.109375 26.578125 L 18.738281 26.578125 L 18.59375 26.292969 L 17.957031 26.292969 L 17.8125 26.558594 C 17.730469 26.585938 17.699219 26.59375 17.617188 26.585938 L 17.566406 26.585938 C 17.523438 26.582031 17.480469 26.582031 17.441406 26.578125 L 17.421875 26.542969 C 17.4375 26.496094 17.457031 26.449219 17.476562 26.402344 L 17.496094 26.359375 C 17.53125 26.269531 17.574219 26.183594 17.613281 26.09375 C 17.636719 26.042969 17.65625 25.992188 17.675781 25.9375 C 17.722656 25.820312 17.769531 25.703125 17.816406 25.585938 L 17.84375 25.523438 C 17.925781 25.320312 18.011719 25.121094 18.097656 24.925781 M 11.394531 24.925781 L 11.964844 24.921875 L 12.320312 24.921875 C 12.355469 24.921875 12.390625 24.921875 12.425781 24.921875 L 12.488281 24.921875 L 12.535156 24.925781 L 12.550781 24.941406 C 12.554688 24.980469 12.554688 25.023438 12.554688 25.0625 L 12.554688 25.128906 C 12.550781 25.183594 12.542969 25.226562 12.535156 25.28125 L 12.464844 25.28125 C 12.386719 25.28125 12.304688 25.277344 12.222656 25.277344 C 12.1875 25.277344 12.152344 25.277344 12.117188 25.277344 C 12.066406 25.277344 12.015625 25.277344 11.964844 25.277344 L 11.917969 25.277344 C 11.878906 25.277344 11.84375 25.277344 11.804688 25.28125 L 11.785156 25.296875 L 11.769531 25.5625 L 12.390625 25.582031 L 12.390625 25.921875 L 11.785156 25.9375 L 11.769531 26.222656 L 12.570312 26.222656 L 12.570312 26.578125 C 12.4375 26.578125 12.308594 26.578125 12.179688 26.578125 C 12.136719 26.578125 12.089844 26.578125 12.046875 26.578125 C 11.984375 26.578125 11.917969 26.578125 11.855469 26.578125 L 11.796875 26.578125 C 11.660156 26.578125 11.53125 26.570312 11.394531 26.558594 Z M 17.085938 24.925781 C 17.175781 24.964844 17.265625 25.011719 17.351562 25.066406 C 17.324219 25.148438 17.28125 25.199219 17.222656 25.257812 L 17.199219 25.285156 C 17.179688 25.308594 17.160156 25.328125 17.136719 25.351562 C 17.097656 25.332031 17.054688 25.308594 17.011719 25.289062 C 16.925781 25.246094 16.859375 25.238281 16.765625 25.246094 C 16.699219 25.265625 16.652344 25.285156 16.601562 25.332031 C 16.597656 25.34375 16.59375 25.355469 16.585938 25.367188 C 16.59375 25.417969 16.59375 25.417969 16.621094 25.457031 C 16.714844 25.523438 16.824219 25.546875 16.933594 25.578125 C 17.078125 25.617188 17.207031 25.671875 17.320312 25.777344 C 17.371094 25.835938 17.402344 25.894531 17.421875 25.972656 C 17.4375 26.074219 17.429688 26.164062 17.394531 26.261719 C 17.355469 26.351562 17.300781 26.421875 17.226562 26.488281 C 17.128906 26.554688 17.015625 26.589844 16.898438 26.597656 C 16.855469 26.601562 16.8125 26.601562 16.765625 26.601562 L 16.71875 26.601562 C 16.609375 26.597656 16.511719 26.589844 16.410156 26.542969 L 16.363281 26.519531 C 16.28125 26.484375 16.210938 26.441406 16.140625 26.382812 C 16.167969 26.308594 16.203125 26.25 16.246094 26.183594 L 16.285156 26.128906 C 16.3125 26.089844 16.339844 26.058594 16.375 26.027344 L 16.402344 26.050781 C 16.492188 26.125 16.578125 26.191406 16.691406 26.222656 C 16.789062 26.230469 16.882812 26.230469 16.976562 26.203125 C 16.996094 26.113281 16.996094 26.113281 16.976562 26.027344 C 16.933594 26.003906 16.933594 26.003906 16.878906 25.984375 L 16.816406 25.960938 C 16.757812 25.941406 16.695312 25.921875 16.636719 25.90625 C 16.515625 25.871094 16.410156 25.835938 16.320312 25.742188 C 16.265625 25.675781 16.238281 25.613281 16.214844 25.527344 C 16.203125 25.425781 16.195312 25.308594 16.230469 25.210938 C 16.289062 25.117188 16.347656 25.039062 16.441406 24.980469 C 16.644531 24.875 16.867188 24.855469 17.085938 24.925781 "/>
<path style=" stroke:none;fill-rule:nonzero;fill:rgb(99.607843%,99.607843%,99.607843%);fill-opacity:1;" d="M 16.410156 18.683594 L 16.710938 18.703125 L 16.742188 18.773438 C 16.808594 18.941406 16.878906 19.109375 16.949219 19.273438 C 17.039062 19.480469 17.121094 19.6875 17.203125 19.894531 C 17.222656 19.941406 17.242188 19.988281 17.261719 20.035156 L 17.292969 20.109375 L 17.316406 20.167969 C 17.332031 20.214844 17.332031 20.214844 17.332031 20.25 L 16.960938 20.25 C 16.890625 20.089844 16.890625 20.089844 16.871094 20.019531 L 16.195312 20 L 16.140625 20.160156 C 16.121094 20.214844 16.121094 20.214844 16.089844 20.25 C 16.035156 20.257812 15.980469 20.257812 15.925781 20.253906 L 15.878906 20.253906 C 15.84375 20.253906 15.804688 20.25 15.769531 20.25 C 15.777344 20.148438 15.808594 20.070312 15.851562 19.980469 C 15.90625 19.871094 15.957031 19.753906 15.996094 19.636719 C 16.0625 19.441406 16.144531 19.253906 16.226562 19.0625 C 16.242188 19.027344 16.257812 18.992188 16.273438 18.957031 L 16.304688 18.890625 L 16.328125 18.828125 C 16.355469 18.773438 16.355469 18.773438 16.410156 18.683594 "/>
<path style=" stroke:none;fill-rule:nonzero;fill:rgb(92.941177%,48.235294%,10.980392%);fill-opacity:1;" d="M 12.730469 24.925781 C 12.789062 24.925781 12.847656 24.921875 12.90625 24.921875 L 13.050781 24.921875 L 13.085938 24.925781 L 13.101562 24.941406 C 13.105469 24.980469 13.105469 25.019531 13.105469 25.058594 L 13.105469 25.097656 C 13.105469 25.136719 13.109375 25.179688 13.109375 25.21875 L 13.109375 25.304688 C 13.109375 25.378906 13.109375 25.453125 13.113281 25.527344 C 13.113281 25.605469 13.113281 25.679688 13.113281 25.757812 C 13.117188 25.90625 13.117188 26.054688 13.121094 26.203125 L 13.183594 26.207031 C 13.265625 26.207031 13.34375 26.210938 13.421875 26.210938 C 13.457031 26.210938 13.492188 26.210938 13.527344 26.214844 C 13.574219 26.214844 13.625 26.214844 13.671875 26.214844 L 13.71875 26.21875 C 13.757812 26.21875 13.792969 26.21875 13.832031 26.222656 L 13.847656 26.238281 C 13.847656 26.265625 13.847656 26.289062 13.847656 26.316406 L 13.839844 26.410156 L 13.839844 26.457031 C 13.835938 26.5 13.832031 26.539062 13.832031 26.578125 C 13.691406 26.578125 13.550781 26.578125 13.40625 26.578125 C 13.34375 26.578125 13.277344 26.578125 13.210938 26.578125 C 13.148438 26.578125 13.085938 26.578125 13.023438 26.578125 C 12.996094 26.578125 12.972656 26.578125 12.949219 26.578125 C 12.914062 26.578125 12.882812 26.578125 12.847656 26.578125 L 12.746094 26.578125 L 12.730469 26.558594 C 12.726562 26.507812 12.726562 26.457031 12.726562 26.40625 L 12.726562 26.359375 C 12.726562 26.304688 12.726562 26.253906 12.726562 26.199219 L 12.726562 26.089844 C 12.726562 25.992188 12.726562 25.898438 12.726562 25.800781 C 12.726562 25.703125 12.726562 25.601562 12.726562 25.503906 C 12.726562 25.3125 12.726562 25.117188 12.730469 24.925781 "/>
<path style=" stroke:none;fill-rule:nonzero;fill:rgb(99.607843%,99.607843%,99.607843%);fill-opacity:1;" d="M 14.71875 18.703125 C 14.746094 18.699219 14.773438 18.699219 14.800781 18.699219 L 14.84375 18.699219 C 14.914062 18.703125 14.988281 18.710938 15.058594 18.71875 L 15.074219 19.910156 C 15.28125 19.910156 15.28125 19.910156 15.484375 19.910156 L 15.601562 19.910156 C 15.632812 19.910156 15.664062 19.910156 15.699219 19.910156 L 15.714844 19.929688 L 15.714844 20.25 L 14.71875 20.25 C 14.703125 20.175781 14.699219 20.109375 14.699219 20.035156 L 14.699219 19.992188 C 14.699219 19.945312 14.699219 19.898438 14.699219 19.851562 L 14.699219 19.753906 C 14.699219 19.6875 14.699219 19.617188 14.699219 19.550781 C 14.699219 19.464844 14.699219 19.375 14.699219 19.289062 C 14.699219 19.222656 14.699219 19.152344 14.699219 19.085938 C 14.699219 19.054688 14.699219 19.023438 14.699219 18.988281 C 14.699219 18.945312 14.699219 18.898438 14.699219 18.855469 L 14.699219 18.8125 C 14.699219 18.78125 14.699219 18.75 14.703125 18.71875 Z M 14.71875 18.703125 "/>
<path style=" stroke:none;fill-rule:nonzero;fill:rgb(7.843138%,7.450981%,9.803922%);fill-opacity:1;" d="M 21.882812 25.28125 C 21.972656 25.320312 22.042969 25.378906 22.105469 25.457031 C 22.167969 25.546875 22.199219 25.628906 22.210938 25.738281 C 22.207031 25.839844 22.179688 25.9375 22.132812 26.027344 C 22.085938 26.101562 22.03125 26.144531 21.953125 26.1875 C 21.863281 26.234375 21.785156 26.25 21.683594 26.246094 C 21.59375 26.234375 21.519531 26.210938 21.441406 26.167969 C 21.359375 26.101562 21.300781 26.027344 21.261719 25.929688 C 21.234375 25.824219 21.234375 25.71875 21.25 25.609375 C 21.277344 25.511719 21.332031 25.441406 21.402344 25.367188 C 21.449219 25.324219 21.488281 25.300781 21.546875 25.28125 L 21.601562 25.257812 C 21.703125 25.238281 21.789062 25.25 21.882812 25.28125 M 19.644531 25.28125 C 19.964844 25.261719 19.964844 25.261719 20.089844 25.316406 C 20.171875 25.363281 20.25 25.425781 20.300781 25.507812 C 20.347656 25.605469 20.359375 25.707031 20.351562 25.8125 C 20.339844 25.910156 20.3125 25.988281 20.253906 26.070312 C 20.210938 26.121094 20.171875 26.15625 20.109375 26.183594 C 19.960938 26.238281 19.800781 26.230469 19.644531 26.222656 L 19.625 26.203125 C 19.625 26.175781 19.625 26.148438 19.625 26.121094 L 19.625 25.945312 C 19.625 25.902344 19.625 25.859375 19.625 25.816406 C 19.625 25.75 19.625 25.6875 19.625 25.621094 C 19.625 25.578125 19.625 25.539062 19.625 25.496094 L 19.625 25.296875 Z M 10.421875 25.292969 C 10.523438 25.328125 10.605469 25.375 10.675781 25.453125 C 10.738281 25.539062 10.757812 25.632812 10.769531 25.738281 C 10.773438 25.820312 10.765625 25.894531 10.738281 25.972656 C 10.699219 26.042969 10.65625 26.101562 10.59375 26.148438 C 10.5 26.207031 10.40625 26.222656 10.300781 26.226562 C 10.21875 26.226562 10.140625 26.226562 10.0625 26.222656 L 10.042969 26.203125 C 10.042969 26.175781 10.042969 26.148438 10.042969 26.121094 L 10.042969 25.945312 C 10.042969 25.878906 10.042969 25.816406 10.042969 25.75 C 10.042969 25.707031 10.042969 25.664062 10.042969 25.621094 C 10.042969 25.511719 10.042969 25.40625 10.042969 25.296875 C 10.164062 25.265625 10.300781 25.265625 10.421875 25.292969 "/>
<path style=" stroke:none;fill-rule:nonzero;fill:rgb(92.941177%,48.235294%,10.980392%);fill-opacity:1;" d="M 7.664062 25.5625 L 9.101562 25.582031 L 9.101562 25.8125 C 8.953125 25.8125 8.804688 25.816406 8.65625 25.816406 C 8.585938 25.816406 8.515625 25.816406 8.445312 25.816406 C 8.378906 25.816406 8.3125 25.816406 8.246094 25.816406 C 8.222656 25.816406 8.195312 25.816406 8.171875 25.816406 C 8.132812 25.816406 8.097656 25.816406 8.0625 25.816406 L 8 25.816406 C 7.945312 25.8125 7.90625 25.800781 7.859375 25.777344 C 7.8125 25.742188 7.8125 25.742188 7.765625 25.699219 L 7.71875 25.65625 C 7.679688 25.617188 7.679688 25.617188 7.664062 25.5625 M 22.988281 25.582031 L 24.375 25.582031 C 24.34375 25.640625 24.324219 25.671875 24.277344 25.71875 L 24.246094 25.75 C 24.210938 25.78125 24.183594 25.796875 24.140625 25.8125 C 24.089844 25.816406 24.089844 25.816406 24.03125 25.816406 L 23.8125 25.816406 C 23.757812 25.816406 23.703125 25.816406 23.652344 25.816406 C 23.582031 25.816406 23.515625 25.816406 23.449219 25.816406 C 23.394531 25.816406 23.34375 25.816406 23.289062 25.816406 C 23.265625 25.816406 23.238281 25.816406 23.214844 25.816406 C 23.179688 25.816406 23.144531 25.816406 23.109375 25.816406 L 23.050781 25.816406 L 23.003906 25.8125 L 22.988281 25.796875 Z M 22.988281 25.582031 "/>
<path style=" stroke:none;fill-rule:nonzero;fill:rgb(99.607843%,99.607843%,99.607843%);fill-opacity:1;" d="M 19.734375 20.425781 C 19.769531 20.425781 19.804688 20.429688 19.839844 20.433594 L 19.972656 20.441406 L 20.042969 20.449219 C 20.101562 20.453125 20.15625 20.457031 20.214844 20.460938 C 20.164062 20.527344 20.113281 20.574219 20.050781 20.625 C 19.980469 20.679688 19.917969 20.738281 19.855469 20.804688 L 19.808594 20.847656 C 19.785156 20.871094 19.761719 20.898438 19.738281 20.925781 C 19.699219 20.960938 19.675781 20.976562 19.625 20.996094 C 19.527344 21.003906 19.425781 20.996094 19.324219 20.976562 L 19.289062 20.941406 C 19.445312 20.761719 19.445312 20.761719 19.472656 20.726562 C 19.492188 20.703125 19.511719 20.679688 19.53125 20.660156 L 19.558594 20.625 L 19.585938 20.59375 C 19.609375 20.570312 19.609375 20.570312 19.664062 20.535156 C 19.679688 20.503906 19.699219 20.472656 19.714844 20.445312 Z M 19.734375 20.425781 "/>
<path style=" stroke:none;fill-rule:nonzero;fill:rgb(7.843138%,7.450981%,9.803922%);fill-opacity:1;" d="M 18.277344 25.421875 L 18.3125 25.421875 C 18.335938 25.492188 18.359375 25.5625 18.382812 25.628906 L 18.421875 25.746094 L 18.441406 25.800781 C 18.453125 25.847656 18.453125 25.847656 18.453125 25.9375 L 18.078125 25.9375 C 18.105469 25.867188 18.128906 25.796875 18.15625 25.726562 C 18.164062 25.703125 18.171875 25.679688 18.179688 25.652344 C 18.191406 25.621094 18.203125 25.585938 18.21875 25.550781 L 18.238281 25.488281 C 18.257812 25.441406 18.257812 25.441406 18.277344 25.421875 M 16.535156 19.164062 L 16.570312 19.183594 C 16.585938 19.222656 16.597656 19.265625 16.613281 19.308594 C 16.621094 19.332031 16.628906 19.355469 16.636719 19.382812 L 16.648438 19.417969 C 16.660156 19.457031 16.675781 19.492188 16.691406 19.53125 C 16.710938 19.589844 16.710938 19.589844 16.710938 19.679688 L 16.355469 19.679688 C 16.394531 19.554688 16.433594 19.425781 16.472656 19.300781 C 16.480469 19.285156 16.480469 19.285156 16.484375 19.265625 C 16.511719 19.183594 16.511719 19.183594 16.535156 19.164062 M 15.253906 25.457031 L 15.308594 25.457031 C 15.328125 25.511719 15.347656 25.566406 15.367188 25.617188 L 15.386719 25.664062 L 15.402344 25.710938 L 15.417969 25.75 C 15.429688 25.796875 15.429688 25.796875 15.449219 25.921875 L 15.09375 25.921875 C 15.136719 25.761719 15.195312 25.609375 15.253906 25.457031 "/>
</g>
</svg>
