<svg xmlns="http://www.w3.org/2000/svg" width="1800" height="1800"><path fill="#111111" d="M0 0h1800v1800H0z"/><path fill="#ED891D" d="M950 227c3.178.163 5.556.736 8.297 2.367a239 239 0 0 1 4.652 3.258c2.098 1.538 2.098 1.538 5.051 2.375v2l1.688.313c2.789.829 4.926 2.03 7.312 3.687v2l2.152.754C989.371 248.225 998.066 257.36 1006 265l1.909 1.826c9.182 8.83 17.6 17.864 25.091 28.174l2.32 3.164c21.998 30.89 35.93 65.83 40.055 103.649 4.45 49.693-6.38 95.752-26.89 140.757-7.943 17.116-16.414 34.038-25.422 50.617-14.028 26.026-23.678 53.76-23.266 83.586.361 5.74 1.287 10.809 3.203 16.227l.86 3.148c1.759 6.374 3.566 11.275 7.968 16.266L1013 714v3l1.773.758c2.522 1.407 3.978 2.93 5.852 5.117l1.79 2.055c1.585 2.07 1.585 2.07 2.632 4.25L1026 731c2.538 1.283 2.538 1.283 5 2v2l1.761.826c2.212 1.16 4.076 2.446 6.06 3.96l2.12 1.607c.721.55 1.442 1.102 2.184 1.67q2.16 1.644 4.32 3.285l1.923 1.469C1051 749.068 1051 749.068 1053 750l-.478-2.58c-.922-6.039-.962-12.135-1.147-18.232l-.066-2.154c-1.184-40.42 2.417-82.386 21.504-118.784 12.546-23.184 27.864-45.311 49.187-61.25l1.879-1.418c9.857-7.388 19.825-13.646 31.121-18.582l1.85-.818c25.286-10.935 51.93-13.651 79.15-13.182v2l-3.113 1.54c-21.538 10.678-41.168 22.2-55.028 42.515-13.495 21.376-21.93 44.48-22.984 69.954-.762 31.938 5.144 61.209 17.25 90.821a238 238 0 0 1 2.445 6.365c1.63 4.39 3.485 8.675 5.344 12.973 1.006 2.623 1.63 5.066 2.086 7.832h2l.918 2.668c2.423 7.324 2.423 7.324 6.582 13.707L1194 765c2.55.102 2.55.102 5-1 1.632-2.573 1.632-2.573 2.688-5.75l1.199-3.172L1204 752l1.007-2.367c.996-2.641 1.539-5.062 1.993-7.844l.497-3.004.503-3.16.526-3.23A639 639 0 0 0 1212 708h2c.182.701.364 1.402.55 2.125 1.307 4.929 2.71 9.701 4.563 14.457 3.105 8.466 5.854 17.122 7.426 26.008.532 2.779 1.24 5.486 1.961 8.222 1.62 6.34 2.576 12.717 3.5 19.188.467 2.989.985 5.931 1.648 8.883 1.965 8.767 3.075 17.56 4.04 26.492l.397 3.637c.584 5.63 1 11.135.895 16.792.022 2.465.255 4.862.512 7.313.69 7 .654 13.98.633 21.008l.012 3.957c-.007 6.735-.272 13.242-1.137 19.918q-.173 3.03-.312 6.063c-3.073 43.29-18.221 88.834-42.356 124.98-2.3 3.39-4.643 6.748-7.011 10.091a870 870 0 0 0-3.731 5.323c-4.03 5.699-4.03 5.699-5.59 7.543h-2c.468-4.547.978-9.053 1.754-13.559 5.483-32.462 1.984-65.434-9.305-96.338-8.163-21.255-19.708-40.988-33.449-59.103l-1.323-1.756a263 263 0 0 0-18.267-21.623c-2.41-2.621-2.41-2.621-4.523-5.293-1.623-2.002-3.102-3.468-5.137-5.015L1105 835v-2l-1.798-.824c-2.155-1.15-3.664-2.33-5.436-3.996l-1.739-1.621-1.777-1.684-1.824-1.707q-2.218-2.079-4.426-4.168c.63 2.945 1.577 5.337 3.004 7.984l1.234 2.31 1.324 2.456q1.37 2.572 2.735 5.145l1.38 2.6c11.738 22.24 22.095 44.92 22.323 70.505-.661 10.504-2.598 20.26-8 29.375l-2 2.625-1.75 2.625c-3.03 3.199-6.142 4.848-10.25 6.375-4.79 1.159-8.165 1.188-12.937 0-5.615-1.926-9.851-4.842-14.063-9-10.947-12.63-18.127-28.236-21.526-44.521-1.472-8.027-1.754-15.8-1.747-23.948l-.03-4.11q-.068-8.613-.078-17.228c-.025-15.11-.13-29.802-3.766-44.57C1043 804 1043 804 1043 800l-2-1q-.99-3.077-1.977-6.156c-5.413-15.042-15.15-27.486-25.023-39.844l.438 2.832c3.097 21.338 3.001 44.68-4.438 65.168-2.012 4.235-4.119 8.29-7 12-2.219 1.324-2.219 1.324-4 2-1.116-4.304-2.107-8.558-2.875-12.937-.83-4.277-2.247-7.864-4.125-11.778-1.059-2.419-1.753-4.8-2.437-7.347-1.163-4.088-2.756-7.281-5.184-10.758-1.646-2.602-2.96-5.31-4.32-8.07-1.64-3.266-3.44-6.434-5.246-9.61l-1.174-2.085a630 630 0 0 0-5.944-10.34c-15.494-26.522-25.72-56.835-25.937-87.698-.124-40.165 8.87-78.08 26.242-114.377l1.246-2.62C980.045 534.815 992.85 514.113 1009 495c-4.298 0-8.52 3.23-12.25 5.188l-3.112 1.632C976.693 510.797 960.358 520.5 945 532l-1.89 1.414c-7.506 5.663-14.586 11.672-21.442 18.106a173 173 0 0 1-6.73 5.918c-27.635 24.087-45.765 58.338-57.515 92.461C853.106 662.567 849 675.478 849 689h-2a4461 4461 0 0 1-6.746-15.175c-1.318-2.968-2.647-5.932-3.977-8.895l-2.715-6.117-1.323-2.93c-2.215-5.023-3.822-9.395-4.239-14.883h-2q-.475 4.25-.937 8.5l-.264 2.34c-1.722 15.938-2.04 31.83-2.049 47.847l-.002 3.284c.017 17.201.71 33.99 3.252 51.029l.52 3.651c4.143 28.652 9.707 59.53 23.48 85.349l2 4-4-1v-2l-1.766-.77c-2.476-1.363-4.04-2.872-5.984-4.918a154 154 0 0 0-10.14-9.476 168 168 0 0 1-4.344-3.922c-13.349-12.432-28.533-22.986-46.453-27.351-4.093-.918-8.2-1.741-12.313-2.563l.899 2.221c13.64 33.848 25.82 68.246 21.351 105.342-2.149 14.035-4.867 28.882-13 40.812-3.352 4.149-7.493 7.234-12.25 9.625-5.35 1.343-10.316 1.65-15.68.352-5.66-1.835-10.192-4.124-14.492-8.266-15.84-18.073-23.447-44.434-28.172-67.39-1.218-6.863-1.996-13.76-2.656-20.696l-.344-3.605c-2.302-28.81-2.92-63.026 7.344-90.395h-2l-.629 1.602c-1.936 3.386-4.617 5.987-7.308 8.773C674.9 800.003 656.236 833.595 644 868l-.883 2.432C632.494 899.928 626.373 930.044 622 961l-.445 3.075c-3.467 24.737-1.844 50.155.445 74.925-3-1-3-1-5.059-3.273-28.129-36.674-44.54-77.863-52.629-123.102l-.613-3.36c-3.52-20.529-4.028-41.136-3.96-61.916.012-3.458.005-6.916-.007-10.374-.046-16.514.5-32.885 2.025-49.336.232-2.515.445-5.03.651-7.546 3.525-42.251 14.519-84.22 27.842-124.343l1.212-3.656a269 269 0 0 1 7.355-19.298 274 274 0 0 0 3.14-7.78c3.826-9.852 7.957-19.382 12.858-28.745 1.361-2.609 2.7-5.229 4.04-7.85C631.718 563.377 646.925 540.367 664 518l1.252-1.655c6.653-8.772 13.803-16.88 21.37-24.87 1.702-1.822 3.327-3.7 4.94-5.6 7.13-8.246 15.085-15.883 23.438-22.875l2.734-2.328c6.899-5.826 13.97-11.347 21.266-16.672l1.712-1.251c20.21-14.723 20.21-14.723 26.288-16.749-1.382 4.554-3.283 8.623-5.5 12.813-7.43 14.448-13.113 29.847-18.414 45.187-1.144 3.161-2.44 6.227-3.774 9.313-1.76 4.132-2.95 8.012-3.785 12.414-.62 2.676-1.546 5.144-2.527 7.71-1.574 4.186-2.592 8.167-3.367 12.56-1.027 4.871-2.459 9.634-3.87 14.408-1.187 4.117-2.018 8.055-2.474 12.33-.644 5.046-1.741 10.027-2.726 15.015-5.553 28.207-7.854 55.78-7.875 84.5-.006 1.61-.006 1.61-.01 3.25-.037 19.991 1.436 39.517 5.01 59.188l.39 2.178C725.167 756.48 725.167 756.48 743 792c2.057 1.254 2.057 1.254 4 2l-.492-2.173c-.496-2.76-.637-5.261-.64-8.061l-.007-3.125.014-3.391.012-3.598c.327-54.197 3.88-108.853 21.113-160.652l.85-2.585C777.59 581.161 791.93 554.202 811 530l2.145-2.79c4.823-6.188 10.092-11.938 15.436-17.673a361 361 0 0 0 4.146-4.58c5.902-6.593 12.109-12.647 18.705-18.542a361 361 0 0 0 4.83-4.454c5.795-5.424 11.667-10.642 17.86-15.617 3.344-2.723 6.613-5.526 9.878-8.344a652 652 0 0 1 15.52-12.953c3.056-2.522 6.001-5.155 8.921-7.832L910 436h2v-2c1.8-1.594 1.8-1.594 4.313-3.5 4.912-3.829 9.51-7.903 14.09-12.121a285 285 0 0 1 6.784-6.004c7.79-6.808 14.386-14.28 20.813-22.375l2.441-2.926c12.699-15.64 21.864-34.771 25.258-54.722 2.48-19.383 1.66-39.048-5.699-57.352-6.136-13.738-13.632-26.254-23-38l-4.187-5.375-1.668-2.086L950 228z"/><path fill="#A5191F" d="m1008 493 2 2-1.695 1.887C995.407 511.755 985.105 528.6 976 546l-1.347 2.533C967.198 562.61 961.222 576.957 956 592l-.772 2.175c-11.37 32.297-16.831 70.256-10.713 104.307C947.345 712.294 951.43 726.05 957 739l1.445 3.383c5.643 12.62 12.749 24.437 19.742 36.344 2.79 4.748 5.532 9.468 7.918 14.433a86 86 0 0 0 1.883 3.649c2.785 5.17 4.45 10.507 6.082 16.14.85 2.986.85 2.986 1.977 5.489 1.214 3.265 1.626 6.424 2.078 9.875l.508 3.8L999 835c6.043-5.643 9.282-12.046 11.977-19.816 5.645-20.5 5.012-42.339 2.023-63.184 12.723 12.118 23.324 28.39 29 45l.797 2.238c6.333 19.224 5.66 39.022 5.708 58.986-.293 23.1-.293 23.1 3.495 45.776l.663 2.438c3.851 12.687 10.483 26.478 19.735 36.09 4.489 4.127 9.112 6.455 14.95 8.062 5.245.811 9.721-.522 14.625-2.309 3.67-1.742 5.86-4.055 8.215-7.343 5.874-9.634 8.08-19.744 8.812-30.938.135-14.141-2.874-28.117-8.668-41-1.479-3.33-2.737-6.715-4.02-10.125-2.608-6.723-5.97-12.891-9.547-19.143-4.02-7.057-7.462-14.317-10.765-21.732 4.24 1.69 7.174 4.728 10.438 7.813.56.52 1.12 1.042 1.697 1.58 2.588 2.419 5.126 4.87 7.627 7.38 2.173 2.259 2.173 2.259 4.613 4.04 2.917 2.43 5.247 5.075 7.703 7.96a131 131 0 0 0 3.844 4.266c26.901 28.62 47.126 64.635 56.562 102.744 5.716 24.578 6.465 50.195 1.9 75.016-.343 1.967-.593 3.95-.83 5.931-.74 4.915-1.893 8.659-4.992 12.56-2.988 3.445-6.246 6.583-9.562 9.71q-1.43 1.401-2.86 2.805c-28.899 27.542-64.51 46.47-103.14 56.195-7.783 1.736-15.616 3.206-23.473 4.562-1.908.33-3.811.693-5.71 1.07-3.944.515-7.846.447-11.817.368l.38-2.138c5.459-30.882 10.172-61.58 12.62-92.862l-1.702-.88c-14.23-7.41-27.364-15.646-40.298-25.12l-5.016-3.613C974.646 990.629 965.63 983.643 957 976l-2.723-2.387c-6.923-6.203-13.506-12.74-20.09-19.3l-2.714-2.701c-4.459-4.47-8.781-8.993-12.893-13.783-2.475-2.865-5.061-5.623-7.643-8.391-8.731-9.431-8.731-9.431-11.937-13.438v-2h-3l-.691 1.656c-1.7 3.045-3.862 5.299-6.246 7.844l-3.012 3.234-1.549 1.655c-2.27 2.435-4.51 4.9-6.752 7.361-29.554 32.247-29.554 32.247-41.875 42.656-2.279 1.937-4.478 3.953-6.687 5.969-18.04 16.213-38.294 31.986-60.188 42.625q.373 7.571.83 15.138.171 2.883.333 5.767c1.057 18.275 3.671 36.09 6.837 54.095l.522 2.974a1407 1407 0 0 0 1.998 11.104C780 1119 780 1119 780 1122c-38.474-2.92-76.304-16.012-108.5-37.125A392 392 0 0 1 666 1081l-2.898-2.07c-8.06-5.902-15.597-12.348-23.102-18.93l-2.863-2.484c-13.14-11.564-13.14-11.564-16.137-18.516-.41-2.44-.41-2.44-.633-5.207l-.255-3.168-.237-3.437-.25-3.608C616.73 977.77 622.911 932.884 636 889l1.042-3.502c5.219-17.213 11.982-33.39 19.958-49.498l1.513-3.08c10.333-20.888 22.48-39.156 38.21-56.35 3.294-3.718 6.362-7.61 9.43-11.515L708 763h2l-.427 1.803C699.588 807.943 699.322 856.302 712 899l.863 2.965C717.02 915.313 722.786 928.65 731 940l1.418 2.043c3.372 4.43 7.21 6.657 12.215 9.012 4.762 1.902 9.247 2.457 14.367 1.945 3.122-.733 6.105-1.613 9-3q1.516-1.484 3-3h2l.855-1.793c1.032-1.989 2.169-3.694 3.457-5.52 8.69-13.84 11.181-32.536 11.848-48.527.78-29.528-7.784-55.974-18.078-83.246l-.852-2.26a639 639 0 0 0-1.554-4.06C767 797.214 767 797.214 767 795c12.612.288 24.092 4.372 34.866 10.712 10.502 6.452 19.673 14.447 28.62 22.87 2.625 2.458 5.292 4.872 7.952 7.293 2.842 2.59 5.613 5.178 8.285 7.945L849 846h2c-.59-.982-1.178-1.965-1.785-2.977-2.28-3.998-4.01-8.105-5.653-12.398l-.915-2.386c-2.716-7.206-5.009-14.475-7.011-21.908a302 302 0 0 0-1.334-4.736c-4.138-14.26-6.536-28.606-8.615-43.283l-.39-2.751c-2.41-17.123-3.484-33.865-3.482-51.158-.002-3.17-.02-6.34-.04-9.51-.03-10.633.244-21.18 1.112-31.78l.235-2.894c.587-6.486 1.615-12.831 2.878-19.219h2l.837 2.493c3.282 9.509 7.237 18.579 11.476 27.694q1.909 4.112 3.8 8.231l1.681 3.618C847 686 847 686 847 689h2l-.568-2.02c-.54-3.721-.028-7.008.65-10.664l.41-2.25c1.517-7.819 3.856-15.32 6.422-22.85.773-2.276 1.52-4.558 2.264-6.843 3.417-10.29 7.734-19.807 12.822-29.373l1.286-2.476C885.086 588.1 903.654 564.542 925 547l2.738-2.398c18.919-16.53 40.068-29.34 62.028-41.372 3.8-2.093 7.58-4.224 11.359-6.355l2.102-1.184z"/><path fill="#FEFEFE" d="M1114.444 1192.806c16.139 7.9 30.25 19.673 40.442 34.5 8.407 12.788 12.738 27.58 14.051 42.757.56 16.409-2.059 31.981-9.687 46.625-3.445 6.342-7.492 11.876-12.25 17.312l-1.754 2.223c-10.041 12.296-24.287 20.44-38.934 26.027-17.267 5.97-35.024 5.87-52.855 2.66-10.084-1.972-18.631-5.698-27.457-10.91v-2l-2.188-.73c-3.2-1.445-5.244-3.195-7.812-5.582l-2.648-2.461L1011 1341l-2.625-2.437c-9.017-9.73-16.734-20.022-20.55-32.836-.782-2.73-.782-2.73-1.86-5.301-4.93-12.396-4.08-28.568-2.403-41.613 1.093-5.356 2.92-10.485 4.75-15.625l.86-2.429c1.714-4.567 3.705-8.342 6.668-12.217 1.292-1.65 1.292-1.65 2.605-4.07 2.118-3.367 4.717-6.138 7.43-9.034l1.566-1.71c2.982-3.21 5.975-6.174 9.559-8.728h2l1-3c3.768-2.709 7.906-4.825 12-7l1.778-.957c24.7-13.084 55.421-12.902 80.666-1.237M1194 1185a162 162 0 0 1 7.36-.203l2.246-.017q2.36-.014 4.721-.02c2.4-.01 4.798-.04 7.196-.072q2.294-.01 4.586-.016l2.166-.038c3.266.015 5.583.299 8.55 1.708 3.013 2.297 5.344 5.06 7.737 7.97l3.176 3.786 1.632 1.957a643 643 0 0 0 6.348 7.422c4.447 5.147 8.797 10.35 13.016 15.687 3.094 3.872 6.241 7.698 9.391 11.524l1.777 2.16c3.273 3.973 6.59 7.887 10.027 11.718L1285 1250v2l3 1c1.184 1.355 1.184 1.355 2.438 3.188 3.411 4.739 7.192 9.101 11.017 13.507a270 270 0 0 1 10.924 13.512c1.592 2.057 1.592 2.057 4.621 2.793l-1-2a220 220 0 0 1-.221-8.238l-.035-2.583c-.037-2.83-.066-5.66-.096-8.492l-.07-5.905a8465 8465 0 0 1-.136-12.408q-.083-7.923-.185-15.844-.074-6.107-.139-12.215-.031-2.917-.07-5.836-.048-4.102-.086-8.206l-.034-2.403c-.042-5.678.413-11.232 1.072-16.87q9.159-.037 18.317-.055 3.117-.008 6.236-.02 4.472-.017 8.943-.023l2.835-.015h2.608l2.308-.007 1.753.12 1 1c.1 2.289.126 4.58.127 6.871l.005 2.203c.004 2.455 0 4.909-.003 7.363l.006 5.257q.004 7.159 0 14.318c-.003 4.983 0 9.966 0 14.949q.004 12.555-.005 25.11-.007 14.536.002 29.073.007 12.457.003 24.915-.003 7.45.001 14.901.004 7.003-.005 14.006 0 2.577.002 5.155.002 3.504-.006 7.008l-.001 3.97L1360 1364l-1 1c-2.413.1-4.797.14-7.21.133l-2.195.003q-2.302 0-4.605-.006c-2.348-.005-4.696 0-7.045.007q-2.235 0-4.468-.004l-2.131.006c-3.06-.015-5.419-.163-8.346-1.139-1.77-1.906-1.77-1.906-3.812-4.5l-2.395-3-1.335-1.68c-2.78-3.471-5.625-6.891-8.458-10.32a4975 4975 0 0 1-13.594-16.562c-3.74-4.565-7.494-9.118-11.247-13.671-3.989-4.84-7.957-9.696-11.917-14.56a428 428 0 0 0-5.234-6.195l-1.544-1.8q-1.5-1.743-3.012-3.475c-1.187-1.381-2.324-2.806-3.452-4.237v-2h-2c-2.625-2.875-2.625-2.875-5-6v-2h-2a381 381 0 0 1-5-6l-2-1v-2h-2v100h-45q-.23-34.982-.443-69.964-.098-16.242-.205-32.484-.095-14.15-.177-28.301-.043-7.497-.096-14.995-.049-7.05-.086-14.097-.014-2.595-.035-5.19-.026-3.526-.04-7.053l-.025-3.997.107-2.919zM831 1187l3.121.844c14.549 4.389 27.661 12.987 38.879 23.156 1.729 2.058 1.729 2.058 3 4-.102 2.059-.102 2.059-1 4-1.46 1.535-1.46 1.535-3.375 3.063-7.609 6.377-14.93 13.242-20.406 21.574L850 1245h-3a117 117 0 0 1-4-5l-2-1v-2l-2.203-.848c-3.42-1.409-6.638-3.11-9.906-4.836-7.09-3.228-13.397-4.855-21.203-4.754l-2.51.023c-9.122.244-16.474 2.76-24.428 7.165-6.912 4.442-11.993 9.529-16.062 16.688-4.72 9.362-7.025 17.954-6.688 28.562 1.27 10.351 4.864 19.536 11 28 5.773 7.537 13.424 11.413 22 15 8.74 3.283 19.127 2.77 28.277 1.57 7.71-1.641 14.342-4.968 20.723-9.57 2.4-2.234 4.094-4.3 6-7v-2c-8.031-.945-16.046-1.298-24.125-1.562L809 1303v-37c10.815-.636 21.42-1.142 32.223-1.098l3.641.003c4.4.006 8.8.02 13.198.033L888 1265l1 99c-4.522.754-7.817 1.077-12.273.879l-3.497-.147-3.605-.17-3.676-.158q-4.474-.194-8.949-.404c-1.425-3.99-2.4-7.805-3-12l-2.676 1.61c-16.63 9.851-32.119 13.115-51.324 13.39-17.254-.291-32.214-6.53-47-15v-2c-2.332-1.206-4.496-2.165-7-3-3.745-3.432-7.001-7.259-10.312-11.105-1.755-2.032-1.755-2.032-4.188-4.207-6.351-6.828-10.462-14.943-13.5-23.688l-.836-2.344c-6.348-18.352-6.238-36.552-2.61-55.562 2.949-12.376 9.584-23.243 17.446-33.094.565-.718 1.13-1.436 1.71-2.176 8.614-10.412 21.234-19.817 33.743-24.953 20.356-6.962 42.672-8.643 63.547-2.871M571 1185h120c1 29 1 29 1 42h-75v26l9.29-.035q4.577-.012 9.155-.02 3.12-.008 6.242-.02c14.477-.06 28.854.318 43.313 1.075v40h-68v29l6.16-.016q10.13-.025 20.26-.036 6.135-.007 12.27-.023 5.932-.016 11.866-.02 2.251-.003 4.502-.01c8.364-.03 16.625.13 24.942 1.105q.037 8.518.055 17.035.008 2.9.02 5.8c.013 2.772.018 5.545.023 8.317l.015 2.636c0 2.071-.05 4.142-.113 6.212l-1 1a80 80 0 0 1-4.828.12l-3.166.004-3.502-.01h-3.666q-4.989-.001-9.979-.013-5.208-.007-10.418-.008-9.87-.005-19.74-.021-11.235-.015-22.47-.022-23.115-.016-46.231-.05c-1.144-18.71-1.133-37.4-1.101-56.135.006-4.37.006-8.74.008-13.109q.005-12.356.021-24.71.018-16.737.024-33.472c.01-17.524.03-35.05.048-52.574M438 1185c43 0 43 0 45 1v137h68v42q-21.435.034-42.871.052-9.952.007-19.906.023-9.6.016-19.198.02-3.669.003-7.336.01-5.126.01-10.25.009l-3.085.01-2.817-.004-2.45.003C441 1365 441 1365 438 1364zM913 1185h45q.198 27.477.391 54.955.09 12.765.182 25.53l.158 22.306.084 11.76a11229 11229 0 0 1 .197 32.821q.039 7.227.057 14.455.007 2.288.019 4.574.014 3.148.017 6.296l.012 3.624L959 1364l-1 1a60 60 0 0 1-4.153.114h-2.669l-2.9-.016-2.956-.005c-3.128-.005-6.256-.018-9.385-.03q-3.173-.008-6.345-.014-7.796-.017-15.592-.049c-1.49-2.981-1.123-5.671-1.12-8.998l-.003-2.208q0-3.68.01-7.36l-.001-5.263q.001-7.158.013-14.317c.006-4.984.006-9.967.008-14.95q.005-14.163.021-28.326.015-16.12.022-32.242.016-33.168.05-66.336"/><path fill="#ED7B1C" d="m1236 1402 2.805.93c7.874 2.905 13.528 6.892 19.195 13.07 5.182 6.335 9.552 13.296 11.582 21.293 1.48 9.584 1.106 19.384-2.133 28.543-4.106 8.966-9.787 16.612-17.758 22.512-6.82 4.187-14.325 7.367-22.343 7.89-10.57.275-19.475-.884-29.125-5.593-7.453-4.18-12.872-9.226-17.41-16.457-4.684-8.202-7.935-16.202-8.063-25.688.09-7.946.82-15.265 4.832-22.258 1.715-2.503 3.52-4.877 5.418-7.242l2.313-3.187c6.863-7.183 15.303-11.71 24.687-14.813 8.61-1.787 17.652-1.926 26 1"/><path fill="#141319" d="M1097.625 1233.188 1101 1235v2l2.254.785c4.596 2.034 7.567 5.387 10.746 9.215 5.309 7.88 8.534 16.087 9.281 25.57.226 9.167-.484 18.364-4.37 26.793-1.099 1.95-1.099 1.95-2.911 4.637h-2l-.687 2.188c-1.59 3.407-3.535 5.293-6.313 7.812l-2.125 2c-6.361 4.425-14.124 8.028-21.875 9-10.76.868-19.606-.853-29.496-5.062-7.104-3.546-12.576-8.97-17.262-15.32-4.745-7.416-8.062-15.18-8.59-24.032-.259-8.19-.052-16 3.348-23.586l.996-2.246c3.643-7.273 8.926-13.677 15.422-18.578 16.208-10.23 33.014-11.524 50.207-2.988"/><path fill="#ED7B1C" d="M1083 1402c47.66 0 47.66 0 59.813 5.75 8.154 4.84 13.794 10.186 18.644 18.387 4.549 8.44 6.132 15.698 6.014 25.23-.303 7.648-2.143 13.61-5.979 20.238-5.063 7.783-11.313 13.934-19.554 18.27-18.093 8.282-39.968 5.125-58.938 5.125zM546 1402c2.453-.114 4.878-.164 7.332-.168l2.264-.01q2.386-.007 4.774-.007c2.394-.002 4.788-.02 7.183-.04 12.579-.047 24.922.643 36.447 6.225 7.515 4.612 13.908 9.74 18.398 17.379 4.891 9.259 6.246 17.905 5.977 28.223-.469 7.66-3.024 14.518-6.984 21.054-5.038 6.933-11.538 11.836-19.258 15.469-9.494 3.895-18.832 5.041-29.008 4.973l-2.454-.005c-2.557-.005-5.114-.018-7.671-.03q-2.619-.008-5.238-.014-6.381-.017-12.762-.049-.034-17.967-.052-35.934-.007-8.342-.023-16.684-.016-8.043-.02-16.086-.003-3.077-.01-6.152-.01-4.293-.009-8.585l-.01-2.596c.003-1.988.058-3.976.124-5.963zM850 1402c3.282-.333 6.578-.325 9.875-.375l2.8-.113 2.692-.035 2.472-.06L870 1402c2.262 3.034 3.647 6.322 5.023 9.832l1.135 2.87 1.217 3.11q1.34 3.383 2.684 6.762l1.44 3.638c12.088 30.987 12.088 30.987 26.635 60.87C909 1491 909 1491 909 1494h-24l-6-15q-6.671-.25-13.342-.482-2.267-.08-4.533-.166-3.27-.123-6.54-.23l-3.966-.144c-3.393.02-6.343.136-9.619 1.022-1.649 2.631-2.74 4.734-3.875 7.563L834 1494h-22c.796-4.773 1.528-7.623 3.438-11.875q.812-1.84 1.62-3.684l.922-2.093c2.059-4.74 4.035-9.515 6.02-14.285l1.315-3.155c2.38-5.722 4.72-11.457 6.997-17.22a272 272 0 0 1 6.192-14.376c2.587-5.728 5.017-11.526 7.462-17.316l1.143-2.691 1.03-2.438C849 1403 849 1403 850 1402M1018 1402q4.938-.041 9.875-.062l2.84-.026 2.715-.01 2.507-.016C1038 1402 1038 1402 1040 1403c1 2.366 1.895 4.707 2.75 7.125a2509 2509 0 0 0 1.602 4.387l.825 2.263c1.261 3.41 2.595 6.788 3.948 10.162l.767 1.914a228 228 0 0 0 4.045 9.461c2.014 4.431 3.75 8.962 5.5 13.5 3.381 8.76 6.92 17.436 10.684 26.04l1.125 2.601q1.114 2.576 2.252 5.139l1.025 2.38c.309.705.618 1.408.935 2.134.18.625.358 1.25.542 1.894l-1 3h-21l-8-16h-36l-8 15c-4.653 1.458-6.454 1.817-11 1.438l-2.926-.061A126 126 0 0 1 981 1495l-1-2a134 134 0 0 1 3.125-7.937l.982-2.335c2.118-5.009 4.35-9.958 6.636-14.891 1.295-2.923 2.45-5.871 3.581-8.86 2.54-6.651 5.177-13.259 7.864-19.852l1.419-3.486c4.62-11.29 9.464-22.48 14.393-33.639M641 1402l31.938-.062 10.097-.028 7.867-.008 2.078-.008q3.015-.008 6.031-.008l3.44-.006 2.549.12 1 1c.1 2.248.13 4.5.125 6.75l.008 3.734c-.113 2.999-.504 5.6-1.133 8.516l-3.748-.016q-6.857-.026-13.714-.039-2.973-.008-5.945-.02a3168 3168 0 0 0-8.527-.023l-2.702-.015c-2.121 0-4.243.05-6.364.113l-1 1-1 15 35 1v19l-34 1-1 16h45v20q-10.965.037-21.93.055-3.722.008-7.445.02-5.381.017-10.762.023l-3.31.015c-7.615 0-14.907-.525-22.553-1.113zM961 1402c5.232 2.295 10.244 4.83 15 8-1.429 4.491-3.93 7.462-7.125 10.813l-1.418 1.521A599 599 0 0 1 964 1426a430 430 0 0 1-7-3.562c-4.84-2.32-8.59-2.805-14-2.438-3.622 1.207-6.235 2.305-9.062 4.875-.31.701-.62 1.402-.938 2.125.363 2.66.363 2.66 2 5 5.128 3.803 11.377 4.987 17.432 6.662 8.307 2.376 15.408 5.437 21.802 11.365 2.984 3.333 4.662 6.646 5.766 10.973.802 5.706.363 10.753-1.562 16.188-2.292 5.058-5.265 9.14-9.438 12.812-5.474 3.686-11.8 5.631-18.358 6.207-2.51.096-5.006.122-7.517.105l-2.681-.014c-6.247-.113-11.7-.69-17.444-3.298l-2.637-1.172c-4.56-2.157-8.587-4.43-12.363-7.828 1.468-4.122 3.498-7.5 5.938-11.125l2.09-3.133c1.554-2.16 3.013-3.961 4.972-5.742l1.652 1.39c5.058 4.116 9.959 7.932 16.348 9.61 5.433.48 10.733.539 16-1 .938-5.05.938-5.05 0-10-2.465-1.314-2.465-1.314-5.562-2.375l-3.547-1.309c-3.344-1.162-6.723-2.16-10.122-3.144-6.784-1.986-12.753-3.957-17.769-9.172-3.034-3.833-4.676-7.32-6-12-.513-5.804-1.015-12.323 1.063-17.875 3.306-5.333 6.443-9.58 11.851-12.93 11.36-5.892 23.763-7.12 36.086-3.195"/><path fill="#FEFEFE" d="m923 1051 17 1 1.652 4.074c3.826 9.408 7.691 18.792 11.723 28.113 4.98 11.528 9.702 23.158 14.406 34.8q1.619 3.999 3.25 7.993l1.657 4.082 1.386 3.41C975 1137 975 1137 975 1139h-21c-4-9-4-9-5-13l-38-1-3 9c-1.113 3.043-1.113 3.043-3 5-3.084.605-6.06.47-9.187.313l-2.561-.069A356 356 0 0 1 887 1139c.509-5.738 2.161-9.955 4.75-15.062a162 162 0 0 0 7.967-19.28c3.85-10.972 8.498-21.67 13.125-32.332a2053 2053 0 0 0 2.566-5.955l1.666-3.848 1.487-3.44C920 1056 920 1056 923 1051"/><path fill="#ED7B1C" d="M716 1402q4.968-.041 9.938-.062l2.865-.026 2.724-.01 2.524-.016L736 1402l1 1c.124 2.208.178 4.42.205 6.631l.03 2.099q.047 3.45.081 6.899l.063 4.771q.083 6.291.153 12.582.077 6.414.161 12.829.162 12.594.307 25.189l3.656.076q6.69.142 13.379.296 2.9.066 5.8.125 4.159.088 8.317.187l2.636.05c2.072.052 4.143.154 6.212.266l1 1a60 60 0 0 1-.121 4.254l-.147 2.588-.17 2.72-.158 2.733q-.195 3.352-.404 6.705-11.904.034-23.808.052-5.527.007-11.055.023-5.33.016-10.659.02-2.037.003-4.075.01c-1.897.008-3.793.008-5.69.009l-3.277.006L717 1495l-1-1c-.095-2.86-.126-5.698-.114-8.559v-2.72c0-2.98.009-5.962.016-8.944l.005-6.183q.006-8.156.024-16.31.014-8.315.02-16.63.016-16.327.049-32.654"/><path fill="#FEFEFE" d="M828 1052c1.497-.101 3-.13 4.5-.125l2.469-.008c4.024.177 8.027.688 12.031 1.133l1 67c11.474-.04 11.474-.04 22.947-.09l4.3-.008 2.274-.015c1.826 0 3.653.05 5.479.113l1 1v18h-56c-1.025-4.099-1.14-7.784-1.13-11.966l-.005-2.42q-.004-3.954.002-7.907l-.003-5.491q-.001-5.748.006-11.497.006-7.384-.004-14.77-.005-5.666 0-11.331 0-2.724-.002-5.448-.003-3.796.007-7.593l-.007-2.293c.008-1.762.066-3.524.136-5.284z"/><path fill="#141319" d="M1231 1422c5.063 2.362 8.886 5.53 12.375 9.875 3.511 5.13 5.4 9.804 6 16-.257 5.677-1.822 11.09-4.406 16.14-2.632 4.09-5.79 6.6-10.004 8.985-5.096 2.593-9.568 3.463-15.25 3.3-4.998-.553-9.313-1.856-13.715-4.3-4.494-3.708-7.885-7.92-10-13.375-1.605-5.984-1.62-11.92-.602-18.008 1.514-5.643 4.558-9.544 8.555-13.738 2.53-2.323 4.815-3.71 8.047-4.879l3.125-1.312c5.62-.998 10.418-.294 15.875 1.312M1105 1422c18.01-.922 18.01-.922 25 2 4.777 2.728 9.014 6.261 12.027 10.898 2.494 5.39 3.13 11.155 2.817 17.04-.79 5.463-2.315 9.892-5.508 14.414-2.442 3.013-4.726 4.886-8.242 6.55-8.304 3.086-17.37 2.58-26.094 2.098l-1-1a78 78 0 0 1-.13-4.78l-.009-3.083.006-3.356-.003-3.419q0-3.585.006-7.172c.005-3.674 0-7.348-.007-11.022q0-3.474.004-6.95l-.006-3.355.01-3.084.002-2.73.127-2.049zM586.25 1422.625c5.585 2.048 10.261 4.723 14.36 9.09 3.505 4.876 4.521 10.141 5.238 16.031.22 4.707-.28 8.81-1.848 13.254-2.098 3.97-4.616 7.154-8.21 9.898-5.158 3.176-10.41 4.122-16.403 4.317-4.473.061-8.92.031-13.387-.215l-1-1a79 79 0 0 1-.114-4.795v-3.094l.016-3.365.005-3.426c.005-3.627.018-7.255.03-10.882q.009-3.679.014-7.358.017-9.04.049-18.08c6.735-1.816 14.411-1.74 21.25-.375"/><path fill="#ED7B1C" d="m431 1438 81 1v13q-12.583.07-25.166.104-5.842.014-11.686.047-5.64.032-11.282.039-2.15.004-4.3.021c-2.01.015-4.02.016-6.032.016l-3.465.014c-3.132-.246-5.265-.856-8.069-2.241-2.64-2.059-2.64-2.059-5.25-4.437l-2.64-2.372C432 1441 432 1441 431 1438M1293 1439h78c-1.693 3.385-2.792 5.064-5.375 7.625l-1.773 1.79c-1.96 1.678-3.456 2.622-5.852 3.585-2.904.247-2.904.247-6.313.243l-3.872.01-4.17-.023h-4.28q-4.478-.003-8.956-.024c-3.833-.017-7.667-.021-11.5-.02q-4.416-.001-8.83-.013-2.121-.004-4.243-.006-2.955-.005-5.911-.022l-3.402-.011L1294 1452l-1-1z"/><path fill="#FEFEFE" d="M1110 1149c2.004.054 4.006.182 6.004.34l3.682.283 3.877.314 3.888.303q4.775.373 9.549.76c-2.801 3.592-5.524 6.39-9.125 9.188a119 119 0 0 0-11.062 10l-2.508 2.5a120 120 0 0 0-4.11 4.312c-2.071 1.989-3.477 3.014-6.195 4-5.683.503-11.396-.036-17-1l-2-2c8.79-10.254 8.79-10.254 10.392-12.118a421 421 0 0 0 3.24-3.839l1.579-1.883 1.408-1.695C1103 1157 1103 1157 1106 1155a113 113 0 0 0 3-5z"/><path fill="#141319" d="M1028 1430h2a2400 2400 0 0 1 4 11.688l1.156 3.341 1.094 3.233 1.016 2.967C1038 1454 1038 1454 1038 1459h-21q2.104-5.956 4.218-11.908.718-2.025 1.434-4.054 1.028-2.909 2.063-5.815l1.254-3.54C1027 1431 1027 1431 1028 1430M930 1078l2 1c.898 2.35 1.693 4.664 2.438 7.063q.657 2.06 1.32 4.12l.641 2.004c.723 2.18 1.552 4.309 2.413 6.438C940 1102 940 1102 940 1107h-20c2.157-7.109 4.359-14.196 6.688-21.25.32-.983.32-.983.649-1.987 1.545-4.645 1.545-4.645 2.663-5.763M858 1432h3c1.158 3.016 2.299 6.039 3.438 9.063l.986 2.568.947 2.53.873 2.3C868 1451 868 1451 869 1458h-20c2.494-8.87 5.705-17.405 9-26"/></svg>